<svg width="1846" height="618" viewBox="0 0 1846 618" fill="none" xmlns="http://www.w3.org/2000/svg">
<rect width="1846" height="618" fill="#1C1919"/>
<circle cx="1585" cy="249" r="107" fill="#303030"/>
<path d="M1692 450C1692 485.899 1662.45 515 1626 515C1589.55 515 1560 485.899 1560 450C1560 414.101 1589.55 385 1626 385C1662.45 385 1692 414.101 1692 450Z" fill="#303030"/>
<path d="M1452 132C1452 167.899 1422.45 197 1386 197C1349.55 197 1320 167.899 1320 132C1320 96.1015 1349.55 67 1386 67C1422.45 67 1452 96.1015 1452 132Z" fill="#303030"/>
<ellipse cx="1298" cy="370" rx="154" ry="145" fill="#303030"/>
</svg>
