<svg width="1612" height="1104" viewBox="0 0 1612 1104" fill="none" xmlns="http://www.w3.org/2000/svg">
<g clip-path="url(#clip0_27:13)">
<rect width="1612" height="1104" fill="#1C1919"/>
<path d="M187.595 8.72342L115.387 230.678L-41.6186 52.7555L187.595 8.72342Z" fill="#303030" fill-opacity="0.47"/>
<path d="M1602.05 764.361L1350.14 954.441L1288.91 725.185L1602.05 764.361Z" fill="#303030" fill-opacity="0.47"/>
<path d="M906.595 616.723L834.387 838.678L677.381 660.756L906.595 616.723Z" fill="#303030" fill-opacity="0.47"/>
<path d="M156.595 962.723L84.3868 1184.68L-72.6186 1006.76L156.595 962.723Z" fill="#303030" fill-opacity="0.47"/>
<path d="M727.575 141.448L623.605 451.081L407.411 206.086L727.575 141.448Z" fill="#303030" fill-opacity="0.38"/>
<path d="M533.807 617.207L191.872 912.07L107.553 468.306L533.807 617.207Z" fill="#303030" fill-opacity="0.38"/>
<path d="M1378.72 603.424L1002.82 726.428L1097.84 324.963L1378.72 603.424Z" fill="#303030" fill-opacity="0.38"/>
<path d="M1212.97 94.3776L929.391 256.448L930.893 -70.2931L1212.97 94.3776Z" fill="#303030" fill-opacity="0.47"/>
<path d="M1455.81 87.3562L1624.77 248.388L1396.47 313.091L1455.81 87.3562Z" fill="#303030" fill-opacity="0.47"/>
<path d="M600.809 883.356L769.765 1044.39L541.466 1109.09L600.809 883.356Z" fill="#303030" fill-opacity="0.47"/>
</g>
<defs>
<clipPath id="clip0_27:13">
<rect width="1612" height="1104" fill="white"/>
</clipPath>
</defs>
</svg>
