<svg width="1580" height="544" viewBox="0 0 1580 544" fill="none" xmlns="http://www.w3.org/2000/svg">
<rect width="1580" height="544" fill="#6A98F0"/>
<path d="M241.742 122.336C241.742 122.479 241.716 122.603 241.664 122.707C241.612 122.798 241.488 122.876 241.293 122.941C241.098 123.007 240.811 123.052 240.434 123.078C240.056 123.104 239.542 123.117 238.891 123.117C238.344 123.117 237.908 123.104 237.582 123.078C237.257 123.052 236.996 123.007 236.801 122.941C236.618 122.863 236.488 122.772 236.41 122.668C236.332 122.551 236.267 122.414 236.215 122.258L233.949 116.613C233.676 115.975 233.409 115.409 233.148 114.914C232.888 114.419 232.595 114.009 232.27 113.684C231.957 113.345 231.592 113.091 231.176 112.922C230.759 112.753 230.277 112.668 229.73 112.668H228.129V122.297C228.129 122.427 228.083 122.544 227.992 122.648C227.914 122.753 227.777 122.837 227.582 122.902C227.387 122.967 227.126 123.02 226.801 123.059C226.475 123.098 226.059 123.117 225.551 123.117C225.056 123.117 224.639 123.098 224.301 123.059C223.975 123.02 223.715 122.967 223.52 122.902C223.324 122.837 223.188 122.753 223.109 122.648C223.031 122.544 222.992 122.427 222.992 122.297V99.3477C222.992 98.7747 223.135 98.3646 223.422 98.1172C223.721 97.8568 224.086 97.7266 224.516 97.7266H231.059C231.723 97.7266 232.27 97.7396 232.699 97.7656C233.129 97.7917 233.52 97.8242 233.871 97.8633C234.887 98.0065 235.798 98.2539 236.605 98.6055C237.426 98.957 238.116 99.4193 238.676 99.9922C239.249 100.552 239.685 101.223 239.984 102.004C240.284 102.772 240.434 103.658 240.434 104.66C240.434 105.507 240.323 106.281 240.102 106.984C239.893 107.674 239.581 108.293 239.164 108.84C238.747 109.387 238.233 109.862 237.621 110.266C237.009 110.669 236.312 110.995 235.531 111.242C235.909 111.424 236.26 111.646 236.586 111.906C236.924 112.167 237.237 112.486 237.523 112.863C237.823 113.228 238.103 113.651 238.363 114.133C238.624 114.602 238.878 115.135 239.125 115.734L241.254 120.715C241.449 121.21 241.579 121.574 241.645 121.809C241.71 122.03 241.742 122.206 241.742 122.336ZM235.121 105.188C235.121 104.354 234.932 103.651 234.555 103.078C234.177 102.505 233.559 102.102 232.699 101.867C232.439 101.802 232.139 101.75 231.801 101.711C231.475 101.672 231.02 101.652 230.434 101.652H228.129V108.82H230.746C231.475 108.82 232.113 108.736 232.66 108.566C233.207 108.384 233.663 108.137 234.027 107.824C234.392 107.499 234.665 107.115 234.848 106.672C235.03 106.229 235.121 105.734 235.121 105.188ZM260.512 120.988C260.512 121.366 260.492 121.685 260.453 121.945C260.427 122.193 260.382 122.395 260.316 122.551C260.251 122.707 260.167 122.824 260.062 122.902C259.971 122.967 259.867 123 259.75 123H247.055C246.625 123 246.26 122.876 245.961 122.629C245.674 122.368 245.531 121.952 245.531 121.379V99.3477C245.531 98.7747 245.674 98.3646 245.961 98.1172C246.26 97.8568 246.625 97.7266 247.055 97.7266H259.672C259.789 97.7266 259.893 97.7591 259.984 97.8242C260.076 97.8893 260.154 98.0065 260.219 98.1758C260.284 98.332 260.329 98.5404 260.355 98.8008C260.395 99.0482 260.414 99.3672 260.414 99.7578C260.414 100.122 260.395 100.435 260.355 100.695C260.329 100.943 260.284 101.145 260.219 101.301C260.154 101.457 260.076 101.574 259.984 101.652C259.893 101.717 259.789 101.75 259.672 101.75H250.648V107.922H258.285C258.402 107.922 258.507 107.961 258.598 108.039C258.702 108.104 258.786 108.215 258.852 108.371C258.917 108.514 258.962 108.716 258.988 108.977C259.027 109.224 259.047 109.53 259.047 109.895C259.047 110.272 259.027 110.585 258.988 110.832C258.962 111.079 258.917 111.281 258.852 111.438C258.786 111.581 258.702 111.685 258.598 111.75C258.507 111.815 258.402 111.848 258.285 111.848H250.648V118.977H259.75C259.867 118.977 259.971 119.016 260.062 119.094C260.167 119.159 260.251 119.27 260.316 119.426C260.382 119.582 260.427 119.79 260.453 120.051C260.492 120.298 260.512 120.611 260.512 120.988ZM285.258 121.086C285.414 121.555 285.512 121.926 285.551 122.199C285.59 122.473 285.538 122.681 285.395 122.824C285.251 122.954 284.997 123.033 284.633 123.059C284.268 123.098 283.767 123.117 283.129 123.117C282.465 123.117 281.944 123.104 281.566 123.078C281.202 123.065 280.922 123.033 280.727 122.98C280.531 122.915 280.395 122.831 280.316 122.727C280.238 122.622 280.173 122.486 280.121 122.316L278.422 117.238H268.93L267.328 122.18C267.276 122.362 267.204 122.518 267.113 122.648C267.035 122.766 266.898 122.863 266.703 122.941C266.521 123.007 266.254 123.052 265.902 123.078C265.564 123.104 265.115 123.117 264.555 123.117C263.956 123.117 263.487 123.098 263.148 123.059C262.81 123.02 262.576 122.928 262.445 122.785C262.315 122.629 262.27 122.414 262.309 122.141C262.348 121.867 262.445 121.503 262.602 121.047L270.395 98.625C270.473 98.4036 270.564 98.2279 270.668 98.0977C270.772 97.9544 270.935 97.8503 271.156 97.7852C271.391 97.707 271.71 97.6615 272.113 97.6484C272.517 97.6224 273.051 97.6094 273.715 97.6094C274.483 97.6094 275.095 97.6224 275.551 97.6484C276.007 97.6615 276.358 97.707 276.605 97.7852C276.866 97.8503 277.048 97.9544 277.152 98.0977C277.27 98.2409 277.367 98.4362 277.445 98.6836L285.258 121.086ZM273.656 102.551H273.637L270.062 113.293H277.23L273.656 102.551ZM305.824 119.172C305.824 119.497 305.811 119.777 305.785 120.012C305.772 120.233 305.746 120.428 305.707 120.598C305.668 120.754 305.616 120.891 305.551 121.008C305.486 121.125 305.382 121.262 305.238 121.418C305.095 121.561 304.815 121.75 304.398 121.984C303.995 122.219 303.493 122.447 302.895 122.668C302.309 122.876 301.632 123.052 300.863 123.195C300.108 123.339 299.288 123.41 298.402 123.41C296.671 123.41 295.108 123.143 293.715 122.609C292.322 122.076 291.137 121.281 290.16 120.227C289.184 119.159 288.435 117.831 287.914 116.242C287.393 114.654 287.133 112.805 287.133 110.695C287.133 108.547 287.419 106.639 287.992 104.973C288.565 103.306 289.366 101.906 290.395 100.773C291.423 99.6406 292.654 98.7812 294.086 98.1953C295.531 97.6094 297.12 97.3164 298.852 97.3164C299.555 97.3164 300.232 97.375 300.883 97.4922C301.534 97.6094 302.133 97.7656 302.68 97.9609C303.24 98.1432 303.741 98.3581 304.184 98.6055C304.626 98.8529 304.932 99.0677 305.102 99.25C305.284 99.4193 305.408 99.5625 305.473 99.6797C305.538 99.7969 305.59 99.9466 305.629 100.129C305.668 100.311 305.694 100.526 305.707 100.773C305.733 101.021 305.746 101.327 305.746 101.691C305.746 102.082 305.733 102.414 305.707 102.688C305.681 102.961 305.635 103.182 305.57 103.352C305.505 103.521 305.427 103.645 305.336 103.723C305.245 103.801 305.141 103.84 305.023 103.84C304.828 103.84 304.581 103.729 304.281 103.508C303.982 103.273 303.591 103.02 303.109 102.746C302.641 102.46 302.074 102.206 301.41 101.984C300.759 101.75 299.978 101.633 299.066 101.633C298.064 101.633 297.165 101.841 296.371 102.258C295.59 102.661 294.919 103.247 294.359 104.016C293.812 104.771 293.396 105.689 293.109 106.77C292.823 107.85 292.68 109.068 292.68 110.422C292.68 111.906 292.829 113.195 293.129 114.289C293.441 115.37 293.878 116.262 294.438 116.965C295.01 117.668 295.694 118.195 296.488 118.547C297.296 118.885 298.201 119.055 299.203 119.055C300.115 119.055 300.902 118.951 301.566 118.742C302.23 118.521 302.797 118.28 303.266 118.02C303.747 117.759 304.138 117.525 304.438 117.316C304.75 117.108 304.991 117.004 305.16 117.004C305.29 117.004 305.395 117.03 305.473 117.082C305.551 117.134 305.616 117.238 305.668 117.395C305.72 117.551 305.759 117.772 305.785 118.059C305.811 118.332 305.824 118.703 305.824 119.172ZM326.527 99.8359C326.527 100.214 326.508 100.539 326.469 100.812C326.443 101.073 326.397 101.288 326.332 101.457C326.267 101.613 326.182 101.73 326.078 101.809C325.987 101.887 325.883 101.926 325.766 101.926H319.438V122.297C319.438 122.427 319.392 122.544 319.301 122.648C319.223 122.753 319.086 122.837 318.891 122.902C318.695 122.967 318.428 123.02 318.09 123.059C317.764 123.098 317.354 123.117 316.859 123.117C316.365 123.117 315.948 123.098 315.609 123.059C315.284 123.02 315.023 122.967 314.828 122.902C314.633 122.837 314.49 122.753 314.398 122.648C314.32 122.544 314.281 122.427 314.281 122.297V101.926H307.953C307.823 101.926 307.712 101.887 307.621 101.809C307.53 101.73 307.452 101.613 307.387 101.457C307.322 101.288 307.27 101.073 307.23 100.812C307.204 100.539 307.191 100.214 307.191 99.8359C307.191 99.4453 307.204 99.1133 307.23 98.8398C307.27 98.5664 307.322 98.3516 307.387 98.1953C307.452 98.026 307.53 97.9089 307.621 97.8438C307.712 97.7656 307.823 97.7266 307.953 97.7266H325.766C325.883 97.7266 325.987 97.7656 326.078 97.8438C326.182 97.9089 326.267 98.026 326.332 98.1953C326.397 98.3516 326.443 98.5664 326.469 98.8398C326.508 99.1133 326.527 99.4453 326.527 99.8359Z" fill="black"/>
<path d="M641.059 241.836C641.059 242.227 641.039 242.559 641 242.832C640.974 243.092 640.922 243.301 640.844 243.457C640.779 243.613 640.701 243.73 640.609 243.809C640.518 243.887 640.414 243.926 640.297 243.926H632.035V250.723H639.789C639.906 250.723 640.01 250.755 640.102 250.82C640.193 250.885 640.271 250.996 640.336 251.152C640.414 251.309 640.466 251.517 640.492 251.777C640.531 252.038 640.551 252.363 640.551 252.754C640.551 253.145 640.531 253.47 640.492 253.73C640.466 253.991 640.414 254.206 640.336 254.375C640.271 254.544 640.193 254.668 640.102 254.746C640.01 254.811 639.906 254.844 639.789 254.844H632.035V264.258C632.035 264.401 631.996 264.525 631.918 264.629C631.84 264.733 631.697 264.824 631.488 264.902C631.293 264.967 631.033 265.02 630.707 265.059C630.382 265.098 629.965 265.117 629.457 265.117C628.962 265.117 628.546 265.098 628.207 265.059C627.882 265.02 627.621 264.967 627.426 264.902C627.23 264.824 627.087 264.733 626.996 264.629C626.918 264.525 626.879 264.401 626.879 264.258V241.348C626.879 240.775 627.022 240.365 627.309 240.117C627.608 239.857 627.973 239.727 628.402 239.727H640.297C640.414 239.727 640.518 239.766 640.609 239.844C640.701 239.909 640.779 240.026 640.844 240.195C640.922 240.352 640.974 240.566 641 240.84C641.039 241.113 641.059 241.445 641.059 241.836ZM650.395 264.297C650.395 264.427 650.349 264.544 650.258 264.648C650.18 264.753 650.043 264.837 649.848 264.902C649.652 264.967 649.392 265.02 649.066 265.059C648.741 265.098 648.324 265.117 647.816 265.117C647.322 265.117 646.905 265.098 646.566 265.059C646.241 265.02 645.98 264.967 645.785 264.902C645.59 264.837 645.447 264.753 645.355 264.648C645.277 264.544 645.238 264.427 645.238 264.297V240.43C645.238 240.299 645.277 240.182 645.355 240.078C645.447 239.974 645.59 239.889 645.785 239.824C645.993 239.759 646.26 239.707 646.586 239.668C646.911 239.629 647.322 239.609 647.816 239.609C648.324 239.609 648.741 239.629 649.066 239.668C649.392 239.707 649.652 239.759 649.848 239.824C650.043 239.889 650.18 239.974 650.258 240.078C650.349 240.182 650.395 240.299 650.395 240.43V264.297ZM676.176 243.652C676.176 244.03 676.156 244.355 676.117 244.629C676.091 244.902 676.046 245.124 675.98 245.293C675.928 245.449 675.857 245.56 675.766 245.625C675.688 245.69 675.59 245.723 675.473 245.723C675.303 245.723 675.03 245.605 674.652 245.371C674.275 245.137 673.773 244.883 673.148 244.609C672.523 244.336 671.775 244.082 670.902 243.848C670.043 243.613 669.04 243.496 667.895 243.496C666.671 243.496 665.564 243.711 664.574 244.141C663.585 244.557 662.738 245.156 662.035 245.938C661.332 246.706 660.792 247.637 660.414 248.73C660.036 249.811 659.848 251.009 659.848 252.324C659.848 253.77 660.036 255.046 660.414 256.152C660.805 257.246 661.345 258.164 662.035 258.906C662.725 259.648 663.552 260.208 664.516 260.586C665.492 260.964 666.566 261.152 667.738 261.152C668.311 261.152 668.878 261.087 669.438 260.957C669.997 260.827 670.518 260.632 671 260.371V254.512H666.215C665.98 254.512 665.798 254.368 665.668 254.082C665.538 253.783 665.473 253.281 665.473 252.578C665.473 252.214 665.486 251.908 665.512 251.66C665.551 251.413 665.603 251.217 665.668 251.074C665.733 250.918 665.811 250.807 665.902 250.742C665.993 250.664 666.098 250.625 666.215 250.625H674.75C674.958 250.625 675.141 250.664 675.297 250.742C675.466 250.807 675.609 250.911 675.727 251.055C675.857 251.198 675.954 251.374 676.02 251.582C676.085 251.777 676.117 252.005 676.117 252.266V262.324C676.117 262.715 676.046 263.06 675.902 263.359C675.772 263.646 675.492 263.874 675.062 264.043C674.646 264.212 674.125 264.388 673.5 264.57C672.875 264.753 672.224 264.909 671.547 265.039C670.883 265.169 670.206 265.267 669.516 265.332C668.839 265.397 668.155 265.43 667.465 265.43C665.447 265.43 663.637 265.143 662.035 264.57C660.447 263.984 659.099 263.145 657.992 262.051C656.885 260.944 656.039 259.603 655.453 258.027C654.867 256.439 654.574 254.642 654.574 252.637C654.574 250.566 654.887 248.711 655.512 247.07C656.137 245.417 657.022 244.017 658.168 242.871C659.314 241.712 660.694 240.827 662.309 240.215C663.936 239.603 665.746 239.297 667.738 239.297C668.832 239.297 669.828 239.375 670.727 239.531C671.625 239.674 672.406 239.857 673.07 240.078C673.747 240.286 674.307 240.514 674.75 240.762C675.193 241.009 675.499 241.224 675.668 241.406C675.85 241.589 675.98 241.849 676.059 242.188C676.137 242.513 676.176 243.001 676.176 243.652ZM710.863 264.297C710.863 264.427 710.824 264.544 710.746 264.648C710.681 264.753 710.551 264.837 710.355 264.902C710.173 264.967 709.926 265.02 709.613 265.059C709.301 265.098 708.904 265.117 708.422 265.117C707.953 265.117 707.562 265.098 707.25 265.059C706.938 265.02 706.69 264.967 706.508 264.902C706.326 264.837 706.195 264.753 706.117 264.648C706.039 264.544 706 264.427 706 264.297V243.73H705.961L698.637 264.277C698.585 264.447 698.5 264.59 698.383 264.707C698.266 264.811 698.103 264.896 697.895 264.961C697.699 265.026 697.445 265.065 697.133 265.078C696.82 265.104 696.443 265.117 696 265.117C695.557 265.117 695.18 265.098 694.867 265.059C694.555 265.033 694.294 264.987 694.086 264.922C693.891 264.844 693.734 264.753 693.617 264.648C693.5 264.544 693.422 264.421 693.383 264.277L686.312 243.73H686.273V264.297C686.273 264.427 686.234 264.544 686.156 264.648C686.091 264.753 685.961 264.837 685.766 264.902C685.57 264.967 685.316 265.02 685.004 265.059C684.704 265.098 684.314 265.117 683.832 265.117C683.363 265.117 682.973 265.098 682.66 265.059C682.348 265.02 682.094 264.967 681.898 264.902C681.716 264.837 681.586 264.753 681.508 264.648C681.443 264.544 681.41 264.427 681.41 264.297V241.777C681.41 241.113 681.586 240.605 681.938 240.254C682.289 239.902 682.758 239.727 683.344 239.727H686.703C687.302 239.727 687.816 239.779 688.246 239.883C688.676 239.974 689.047 240.137 689.359 240.371C689.672 240.592 689.932 240.892 690.141 241.27C690.349 241.634 690.531 242.09 690.688 242.637L696.156 257.695H696.234L701.898 242.676C702.068 242.129 702.25 241.667 702.445 241.289C702.654 240.911 702.888 240.605 703.148 240.371C703.422 240.137 703.741 239.974 704.105 239.883C704.47 239.779 704.893 239.727 705.375 239.727H708.832C709.184 239.727 709.483 239.772 709.73 239.863C709.991 239.954 710.199 240.091 710.355 240.273C710.525 240.443 710.648 240.658 710.727 240.918C710.818 241.165 710.863 241.452 710.863 241.777V264.297ZM737.074 263.086C737.23 263.555 737.328 263.926 737.367 264.199C737.406 264.473 737.354 264.681 737.211 264.824C737.068 264.954 736.814 265.033 736.449 265.059C736.085 265.098 735.583 265.117 734.945 265.117C734.281 265.117 733.76 265.104 733.383 265.078C733.018 265.065 732.738 265.033 732.543 264.98C732.348 264.915 732.211 264.831 732.133 264.727C732.055 264.622 731.99 264.486 731.938 264.316L730.238 259.238H720.746L719.145 264.18C719.092 264.362 719.021 264.518 718.93 264.648C718.852 264.766 718.715 264.863 718.52 264.941C718.337 265.007 718.07 265.052 717.719 265.078C717.38 265.104 716.931 265.117 716.371 265.117C715.772 265.117 715.303 265.098 714.965 265.059C714.626 265.02 714.392 264.928 714.262 264.785C714.132 264.629 714.086 264.414 714.125 264.141C714.164 263.867 714.262 263.503 714.418 263.047L722.211 240.625C722.289 240.404 722.38 240.228 722.484 240.098C722.589 239.954 722.751 239.85 722.973 239.785C723.207 239.707 723.526 239.661 723.93 239.648C724.333 239.622 724.867 239.609 725.531 239.609C726.299 239.609 726.911 239.622 727.367 239.648C727.823 239.661 728.174 239.707 728.422 239.785C728.682 239.85 728.865 239.954 728.969 240.098C729.086 240.241 729.184 240.436 729.262 240.684L737.074 263.086ZM725.473 244.551H725.453L721.879 255.293H729.047L725.473 244.551Z" fill="black"/>
<path d="M301.742 303.172C301.742 303.497 301.729 303.777 301.703 304.012C301.69 304.233 301.664 304.428 301.625 304.598C301.586 304.754 301.534 304.891 301.469 305.008C301.404 305.125 301.299 305.262 301.156 305.418C301.013 305.561 300.733 305.75 300.316 305.984C299.913 306.219 299.411 306.447 298.812 306.668C298.227 306.876 297.549 307.052 296.781 307.195C296.026 307.339 295.206 307.41 294.32 307.41C292.589 307.41 291.026 307.143 289.633 306.609C288.24 306.076 287.055 305.281 286.078 304.227C285.102 303.159 284.353 301.831 283.832 300.242C283.311 298.654 283.051 296.805 283.051 294.695C283.051 292.547 283.337 290.639 283.91 288.973C284.483 287.306 285.284 285.906 286.312 284.773C287.341 283.641 288.572 282.781 290.004 282.195C291.449 281.609 293.038 281.316 294.77 281.316C295.473 281.316 296.15 281.375 296.801 281.492C297.452 281.609 298.051 281.766 298.598 281.961C299.158 282.143 299.659 282.358 300.102 282.605C300.544 282.853 300.85 283.068 301.02 283.25C301.202 283.419 301.326 283.562 301.391 283.68C301.456 283.797 301.508 283.947 301.547 284.129C301.586 284.311 301.612 284.526 301.625 284.773C301.651 285.021 301.664 285.327 301.664 285.691C301.664 286.082 301.651 286.414 301.625 286.688C301.599 286.961 301.553 287.182 301.488 287.352C301.423 287.521 301.345 287.645 301.254 287.723C301.163 287.801 301.059 287.84 300.941 287.84C300.746 287.84 300.499 287.729 300.199 287.508C299.9 287.273 299.509 287.02 299.027 286.746C298.559 286.46 297.992 286.206 297.328 285.984C296.677 285.75 295.896 285.633 294.984 285.633C293.982 285.633 293.083 285.841 292.289 286.258C291.508 286.661 290.837 287.247 290.277 288.016C289.73 288.771 289.314 289.689 289.027 290.77C288.741 291.85 288.598 293.068 288.598 294.422C288.598 295.906 288.747 297.195 289.047 298.289C289.359 299.37 289.796 300.262 290.355 300.965C290.928 301.668 291.612 302.195 292.406 302.547C293.214 302.885 294.118 303.055 295.121 303.055C296.033 303.055 296.82 302.951 297.484 302.742C298.148 302.521 298.715 302.28 299.184 302.02C299.665 301.759 300.056 301.525 300.355 301.316C300.668 301.108 300.909 301.004 301.078 301.004C301.208 301.004 301.312 301.03 301.391 301.082C301.469 301.134 301.534 301.238 301.586 301.395C301.638 301.551 301.677 301.772 301.703 302.059C301.729 302.332 301.742 302.703 301.742 303.172ZM320.414 299.422C320.414 300.75 320.167 301.915 319.672 302.918C319.177 303.921 318.507 304.76 317.66 305.438C316.814 306.102 315.824 306.603 314.691 306.941C313.559 307.28 312.348 307.449 311.059 307.449C310.186 307.449 309.372 307.378 308.617 307.234C307.875 307.091 307.217 306.922 306.645 306.727C306.072 306.518 305.59 306.303 305.199 306.082C304.822 305.861 304.548 305.665 304.379 305.496C304.21 305.327 304.086 305.086 304.008 304.773C303.943 304.448 303.91 303.986 303.91 303.387C303.91 302.983 303.923 302.645 303.949 302.371C303.975 302.098 304.014 301.876 304.066 301.707C304.132 301.538 304.21 301.421 304.301 301.355C304.405 301.277 304.522 301.238 304.652 301.238C304.835 301.238 305.089 301.349 305.414 301.57C305.753 301.779 306.182 302.013 306.703 302.273C307.224 302.534 307.842 302.775 308.559 302.996C309.288 303.204 310.128 303.309 311.078 303.309C311.703 303.309 312.263 303.237 312.758 303.094C313.253 302.938 313.669 302.723 314.008 302.449C314.359 302.176 314.626 301.837 314.809 301.434C314.991 301.03 315.082 300.581 315.082 300.086C315.082 299.513 314.926 299.025 314.613 298.621C314.301 298.204 313.891 297.84 313.383 297.527C312.888 297.202 312.322 296.902 311.684 296.629C311.046 296.342 310.388 296.043 309.711 295.73C309.034 295.418 308.376 295.066 307.738 294.676C307.1 294.272 306.527 293.797 306.02 293.25C305.525 292.69 305.121 292.033 304.809 291.277C304.496 290.522 304.34 289.617 304.34 288.562C304.34 287.352 304.561 286.29 305.004 285.379C305.46 284.454 306.065 283.693 306.82 283.094C307.589 282.482 308.487 282.026 309.516 281.727C310.557 281.427 311.658 281.277 312.816 281.277C313.415 281.277 314.014 281.323 314.613 281.414C315.212 281.505 315.772 281.629 316.293 281.785C316.814 281.941 317.276 282.117 317.68 282.312C318.083 282.508 318.35 282.671 318.48 282.801C318.611 282.931 318.695 283.042 318.734 283.133C318.786 283.224 318.826 283.348 318.852 283.504C318.891 283.647 318.917 283.836 318.93 284.07C318.943 284.292 318.949 284.572 318.949 284.91C318.949 285.288 318.936 285.607 318.91 285.867C318.897 286.128 318.865 286.342 318.812 286.512C318.773 286.681 318.708 286.805 318.617 286.883C318.539 286.961 318.428 287 318.285 287C318.142 287 317.914 286.909 317.602 286.727C317.289 286.544 316.905 286.349 316.449 286.141C315.993 285.919 315.466 285.724 314.867 285.555C314.268 285.372 313.611 285.281 312.895 285.281C312.335 285.281 311.846 285.353 311.43 285.496C311.013 285.626 310.661 285.815 310.375 286.062C310.102 286.297 309.893 286.583 309.75 286.922C309.62 287.26 309.555 287.618 309.555 287.996C309.555 288.556 309.704 289.044 310.004 289.461C310.316 289.865 310.727 290.229 311.234 290.555C311.755 290.867 312.341 291.167 312.992 291.453C313.643 291.727 314.307 292.02 314.984 292.332C315.661 292.645 316.326 293.003 316.977 293.406C317.628 293.797 318.207 294.272 318.715 294.832C319.223 295.379 319.633 296.03 319.945 296.785C320.258 297.527 320.414 298.406 320.414 299.422ZM339.32 299.422C339.32 300.75 339.073 301.915 338.578 302.918C338.083 303.921 337.413 304.76 336.566 305.438C335.72 306.102 334.73 306.603 333.598 306.941C332.465 307.28 331.254 307.449 329.965 307.449C329.092 307.449 328.279 307.378 327.523 307.234C326.781 307.091 326.124 306.922 325.551 306.727C324.978 306.518 324.496 306.303 324.105 306.082C323.728 305.861 323.454 305.665 323.285 305.496C323.116 305.327 322.992 305.086 322.914 304.773C322.849 304.448 322.816 303.986 322.816 303.387C322.816 302.983 322.829 302.645 322.855 302.371C322.882 302.098 322.921 301.876 322.973 301.707C323.038 301.538 323.116 301.421 323.207 301.355C323.311 301.277 323.428 301.238 323.559 301.238C323.741 301.238 323.995 301.349 324.32 301.57C324.659 301.779 325.089 302.013 325.609 302.273C326.13 302.534 326.749 302.775 327.465 302.996C328.194 303.204 329.034 303.309 329.984 303.309C330.609 303.309 331.169 303.237 331.664 303.094C332.159 302.938 332.576 302.723 332.914 302.449C333.266 302.176 333.533 301.837 333.715 301.434C333.897 301.03 333.988 300.581 333.988 300.086C333.988 299.513 333.832 299.025 333.52 298.621C333.207 298.204 332.797 297.84 332.289 297.527C331.794 297.202 331.228 296.902 330.59 296.629C329.952 296.342 329.294 296.043 328.617 295.73C327.94 295.418 327.283 295.066 326.645 294.676C326.007 294.272 325.434 293.797 324.926 293.25C324.431 292.69 324.027 292.033 323.715 291.277C323.402 290.522 323.246 289.617 323.246 288.562C323.246 287.352 323.467 286.29 323.91 285.379C324.366 284.454 324.971 283.693 325.727 283.094C326.495 282.482 327.393 282.026 328.422 281.727C329.464 281.427 330.564 281.277 331.723 281.277C332.322 281.277 332.921 281.323 333.52 281.414C334.118 281.505 334.678 281.629 335.199 281.785C335.72 281.941 336.182 282.117 336.586 282.312C336.99 282.508 337.257 282.671 337.387 282.801C337.517 282.931 337.602 283.042 337.641 283.133C337.693 283.224 337.732 283.348 337.758 283.504C337.797 283.647 337.823 283.836 337.836 284.07C337.849 284.292 337.855 284.572 337.855 284.91C337.855 285.288 337.842 285.607 337.816 285.867C337.803 286.128 337.771 286.342 337.719 286.512C337.68 286.681 337.615 286.805 337.523 286.883C337.445 286.961 337.335 287 337.191 287C337.048 287 336.82 286.909 336.508 286.727C336.195 286.544 335.811 286.349 335.355 286.141C334.9 285.919 334.372 285.724 333.773 285.555C333.174 285.372 332.517 285.281 331.801 285.281C331.241 285.281 330.753 285.353 330.336 285.496C329.919 285.626 329.568 285.815 329.281 286.062C329.008 286.297 328.799 286.583 328.656 286.922C328.526 287.26 328.461 287.618 328.461 287.996C328.461 288.556 328.611 289.044 328.91 289.461C329.223 289.865 329.633 290.229 330.141 290.555C330.661 290.867 331.247 291.167 331.898 291.453C332.549 291.727 333.214 292.02 333.891 292.332C334.568 292.645 335.232 293.003 335.883 293.406C336.534 293.797 337.113 294.272 337.621 294.832C338.129 295.379 338.539 296.03 338.852 296.785C339.164 297.527 339.32 298.406 339.32 299.422Z" fill="black"/>
<path d="M993.5 200.422C993.5 201.75 993.253 202.915 992.758 203.918C992.263 204.921 991.592 205.76 990.746 206.438C989.9 207.102 988.91 207.603 987.777 207.941C986.645 208.28 985.434 208.449 984.145 208.449C983.272 208.449 982.458 208.378 981.703 208.234C980.961 208.091 980.303 207.922 979.73 207.727C979.158 207.518 978.676 207.303 978.285 207.082C977.908 206.861 977.634 206.665 977.465 206.496C977.296 206.327 977.172 206.086 977.094 205.773C977.029 205.448 976.996 204.986 976.996 204.387C976.996 203.983 977.009 203.645 977.035 203.371C977.061 203.098 977.1 202.876 977.152 202.707C977.217 202.538 977.296 202.421 977.387 202.355C977.491 202.277 977.608 202.238 977.738 202.238C977.921 202.238 978.174 202.349 978.5 202.57C978.839 202.779 979.268 203.013 979.789 203.273C980.31 203.534 980.928 203.775 981.645 203.996C982.374 204.204 983.214 204.309 984.164 204.309C984.789 204.309 985.349 204.237 985.844 204.094C986.339 203.938 986.755 203.723 987.094 203.449C987.445 203.176 987.712 202.837 987.895 202.434C988.077 202.03 988.168 201.581 988.168 201.086C988.168 200.513 988.012 200.025 987.699 199.621C987.387 199.204 986.977 198.84 986.469 198.527C985.974 198.202 985.408 197.902 984.77 197.629C984.132 197.342 983.474 197.043 982.797 196.73C982.12 196.418 981.462 196.066 980.824 195.676C980.186 195.272 979.613 194.797 979.105 194.25C978.611 193.69 978.207 193.033 977.895 192.277C977.582 191.522 977.426 190.617 977.426 189.562C977.426 188.352 977.647 187.29 978.09 186.379C978.546 185.454 979.151 184.693 979.906 184.094C980.674 183.482 981.573 183.026 982.602 182.727C983.643 182.427 984.743 182.277 985.902 182.277C986.501 182.277 987.1 182.323 987.699 182.414C988.298 182.505 988.858 182.629 989.379 182.785C989.9 182.941 990.362 183.117 990.766 183.312C991.169 183.508 991.436 183.671 991.566 183.801C991.697 183.931 991.781 184.042 991.82 184.133C991.872 184.224 991.911 184.348 991.938 184.504C991.977 184.647 992.003 184.836 992.016 185.07C992.029 185.292 992.035 185.572 992.035 185.91C992.035 186.288 992.022 186.607 991.996 186.867C991.983 187.128 991.951 187.342 991.898 187.512C991.859 187.681 991.794 187.805 991.703 187.883C991.625 187.961 991.514 188 991.371 188C991.228 188 991 187.909 990.688 187.727C990.375 187.544 989.991 187.349 989.535 187.141C989.079 186.919 988.552 186.724 987.953 186.555C987.354 186.372 986.697 186.281 985.98 186.281C985.421 186.281 984.932 186.353 984.516 186.496C984.099 186.626 983.747 186.815 983.461 187.062C983.188 187.297 982.979 187.583 982.836 187.922C982.706 188.26 982.641 188.618 982.641 188.996C982.641 189.556 982.79 190.044 983.09 190.461C983.402 190.865 983.812 191.229 984.32 191.555C984.841 191.867 985.427 192.167 986.078 192.453C986.729 192.727 987.393 193.02 988.07 193.332C988.747 193.645 989.411 194.003 990.062 194.406C990.714 194.797 991.293 195.272 991.801 195.832C992.309 196.379 992.719 197.03 993.031 197.785C993.344 198.527 993.5 199.406 993.5 200.422ZM1017.62 206.086C1017.78 206.555 1017.88 206.926 1017.91 207.199C1017.95 207.473 1017.9 207.681 1017.76 207.824C1017.61 207.954 1017.36 208.033 1017 208.059C1016.63 208.098 1016.13 208.117 1015.49 208.117C1014.83 208.117 1014.31 208.104 1013.93 208.078C1013.57 208.065 1013.29 208.033 1013.09 207.98C1012.89 207.915 1012.76 207.831 1012.68 207.727C1012.6 207.622 1012.54 207.486 1012.48 207.316L1010.79 202.238H1001.29L999.691 207.18C999.639 207.362 999.568 207.518 999.477 207.648C999.398 207.766 999.262 207.863 999.066 207.941C998.884 208.007 998.617 208.052 998.266 208.078C997.927 208.104 997.478 208.117 996.918 208.117C996.319 208.117 995.85 208.098 995.512 208.059C995.173 208.02 994.939 207.928 994.809 207.785C994.678 207.629 994.633 207.414 994.672 207.141C994.711 206.867 994.809 206.503 994.965 206.047L1002.76 183.625C1002.84 183.404 1002.93 183.228 1003.03 183.098C1003.14 182.954 1003.3 182.85 1003.52 182.785C1003.75 182.707 1004.07 182.661 1004.48 182.648C1004.88 182.622 1005.41 182.609 1006.08 182.609C1006.85 182.609 1007.46 182.622 1007.91 182.648C1008.37 182.661 1008.72 182.707 1008.97 182.785C1009.23 182.85 1009.41 182.954 1009.52 183.098C1009.63 183.241 1009.73 183.436 1009.81 183.684L1017.62 206.086ZM1006.02 187.551H1006L1002.43 198.293H1009.59L1006.02 187.551ZM1036.16 200.422C1036.16 201.75 1035.91 202.915 1035.41 203.918C1034.92 204.921 1034.25 205.76 1033.4 206.438C1032.56 207.102 1031.57 207.603 1030.43 207.941C1029.3 208.28 1028.09 208.449 1026.8 208.449C1025.93 208.449 1025.11 208.378 1024.36 208.234C1023.62 208.091 1022.96 207.922 1022.39 207.727C1021.81 207.518 1021.33 207.303 1020.94 207.082C1020.56 206.861 1020.29 206.665 1020.12 206.496C1019.95 206.327 1019.83 206.086 1019.75 205.773C1019.68 205.448 1019.65 204.986 1019.65 204.387C1019.65 203.983 1019.67 203.645 1019.69 203.371C1019.72 203.098 1019.76 202.876 1019.81 202.707C1019.87 202.538 1019.95 202.421 1020.04 202.355C1020.15 202.277 1020.26 202.238 1020.39 202.238C1020.58 202.238 1020.83 202.349 1021.16 202.57C1021.49 202.779 1021.92 203.013 1022.45 203.273C1022.97 203.534 1023.58 203.775 1024.3 203.996C1025.03 204.204 1025.87 204.309 1026.82 204.309C1027.45 204.309 1028.01 204.237 1028.5 204.094C1028.99 203.938 1029.41 203.723 1029.75 203.449C1030.1 203.176 1030.37 202.837 1030.55 202.434C1030.73 202.03 1030.82 201.581 1030.82 201.086C1030.82 200.513 1030.67 200.025 1030.36 199.621C1030.04 199.204 1029.63 198.84 1029.12 198.527C1028.63 198.202 1028.06 197.902 1027.43 197.629C1026.79 197.342 1026.13 197.043 1025.45 196.73C1024.78 196.418 1024.12 196.066 1023.48 195.676C1022.84 195.272 1022.27 194.797 1021.76 194.25C1021.27 193.69 1020.86 193.033 1020.55 192.277C1020.24 191.522 1020.08 190.617 1020.08 189.562C1020.08 188.352 1020.3 187.29 1020.75 186.379C1021.2 185.454 1021.81 184.693 1022.56 184.094C1023.33 183.482 1024.23 183.026 1025.26 182.727C1026.3 182.427 1027.4 182.277 1028.56 182.277C1029.16 182.277 1029.76 182.323 1030.36 182.414C1030.95 182.505 1031.51 182.629 1032.04 182.785C1032.56 182.941 1033.02 183.117 1033.42 183.312C1033.83 183.508 1034.09 183.671 1034.22 183.801C1034.35 183.931 1034.44 184.042 1034.48 184.133C1034.53 184.224 1034.57 184.348 1034.59 184.504C1034.63 184.647 1034.66 184.836 1034.67 185.07C1034.68 185.292 1034.69 185.572 1034.69 185.91C1034.69 186.288 1034.68 186.607 1034.65 186.867C1034.64 187.128 1034.61 187.342 1034.55 187.512C1034.52 187.681 1034.45 187.805 1034.36 187.883C1034.28 187.961 1034.17 188 1034.03 188C1033.88 188 1033.66 187.909 1033.34 187.727C1033.03 187.544 1032.65 187.349 1032.19 187.141C1031.74 186.919 1031.21 186.724 1030.61 186.555C1030.01 186.372 1029.35 186.281 1028.64 186.281C1028.08 186.281 1027.59 186.353 1027.17 186.496C1026.76 186.626 1026.4 186.815 1026.12 187.062C1025.84 187.297 1025.64 187.583 1025.49 187.922C1025.36 188.26 1025.3 188.618 1025.3 188.996C1025.3 189.556 1025.45 190.044 1025.75 190.461C1026.06 190.865 1026.47 191.229 1026.98 191.555C1027.5 191.867 1028.08 192.167 1028.73 192.453C1029.39 192.727 1030.05 193.02 1030.73 193.332C1031.4 193.645 1032.07 194.003 1032.72 194.406C1033.37 194.797 1033.95 195.272 1034.46 195.832C1034.96 196.379 1035.38 197.03 1035.69 197.785C1036 198.527 1036.16 199.406 1036.16 200.422ZM1055.06 200.422C1055.06 201.75 1054.82 202.915 1054.32 203.918C1053.83 204.921 1053.15 205.76 1052.31 206.438C1051.46 207.102 1050.47 207.603 1049.34 207.941C1048.21 208.28 1047 208.449 1045.71 208.449C1044.83 208.449 1044.02 208.378 1043.27 208.234C1042.52 208.091 1041.87 207.922 1041.29 207.727C1040.72 207.518 1040.24 207.303 1039.85 207.082C1039.47 206.861 1039.2 206.665 1039.03 206.496C1038.86 206.327 1038.73 206.086 1038.66 205.773C1038.59 205.448 1038.56 204.986 1038.56 204.387C1038.56 203.983 1038.57 203.645 1038.6 203.371C1038.62 203.098 1038.66 202.876 1038.71 202.707C1038.78 202.538 1038.86 202.421 1038.95 202.355C1039.05 202.277 1039.17 202.238 1039.3 202.238C1039.48 202.238 1039.74 202.349 1040.06 202.57C1040.4 202.779 1040.83 203.013 1041.35 203.273C1041.87 203.534 1042.49 203.775 1043.21 203.996C1043.94 204.204 1044.78 204.309 1045.73 204.309C1046.35 204.309 1046.91 204.237 1047.41 204.094C1047.9 203.938 1048.32 203.723 1048.66 203.449C1049.01 203.176 1049.27 202.837 1049.46 202.434C1049.64 202.03 1049.73 201.581 1049.73 201.086C1049.73 200.513 1049.57 200.025 1049.26 199.621C1048.95 199.204 1048.54 198.84 1048.03 198.527C1047.54 198.202 1046.97 197.902 1046.33 197.629C1045.69 197.342 1045.04 197.043 1044.36 196.73C1043.68 196.418 1043.02 196.066 1042.39 195.676C1041.75 195.272 1041.18 194.797 1040.67 194.25C1040.17 193.69 1039.77 193.033 1039.46 192.277C1039.14 191.522 1038.99 190.617 1038.99 189.562C1038.99 188.352 1039.21 187.29 1039.65 186.379C1040.11 185.454 1040.71 184.693 1041.47 184.094C1042.24 183.482 1043.14 183.026 1044.16 182.727C1045.21 182.427 1046.31 182.277 1047.46 182.277C1048.06 182.277 1048.66 182.323 1049.26 182.414C1049.86 182.505 1050.42 182.629 1050.94 182.785C1051.46 182.941 1051.92 183.117 1052.33 183.312C1052.73 183.508 1053 183.671 1053.13 183.801C1053.26 183.931 1053.34 184.042 1053.38 184.133C1053.43 184.224 1053.47 184.348 1053.5 184.504C1053.54 184.647 1053.57 184.836 1053.58 185.07C1053.59 185.292 1053.6 185.572 1053.6 185.91C1053.6 186.288 1053.58 186.607 1053.56 186.867C1053.55 187.128 1053.51 187.342 1053.46 187.512C1053.42 187.681 1053.36 187.805 1053.27 187.883C1053.19 187.961 1053.08 188 1052.93 188C1052.79 188 1052.56 187.909 1052.25 187.727C1051.94 187.544 1051.55 187.349 1051.1 187.141C1050.64 186.919 1050.11 186.724 1049.52 186.555C1048.92 186.372 1048.26 186.281 1047.54 186.281C1046.98 186.281 1046.49 186.353 1046.08 186.496C1045.66 186.626 1045.31 186.815 1045.02 187.062C1044.75 187.297 1044.54 187.583 1044.4 187.922C1044.27 188.26 1044.2 188.618 1044.2 188.996C1044.2 189.556 1044.35 190.044 1044.65 190.461C1044.96 190.865 1045.38 191.229 1045.88 191.555C1046.4 191.867 1046.99 192.167 1047.64 192.453C1048.29 192.727 1048.96 193.02 1049.63 193.332C1050.31 193.645 1050.97 194.003 1051.62 194.406C1052.28 194.797 1052.86 195.272 1053.36 195.832C1053.87 196.379 1054.28 197.03 1054.59 197.785C1054.91 198.527 1055.06 199.406 1055.06 200.422ZM890.336 354.297C890.336 354.427 890.29 354.544 890.199 354.648C890.121 354.753 889.984 354.837 889.789 354.902C889.594 354.967 889.333 355.02 889.008 355.059C888.682 355.098 888.272 355.117 887.777 355.117C887.27 355.117 886.846 355.098 886.508 355.059C886.182 355.02 885.922 354.967 885.727 354.902C885.544 354.837 885.408 354.753 885.316 354.648C885.238 354.544 885.199 354.427 885.199 354.297V344.082H875.746V354.297C875.746 354.427 875.707 354.544 875.629 354.648C875.551 354.753 875.414 354.837 875.219 354.902C875.023 354.967 874.763 355.02 874.438 355.059C874.112 355.098 873.695 355.117 873.188 355.117C872.693 355.117 872.276 355.098 871.938 355.059C871.612 355.02 871.352 354.967 871.156 354.902C870.961 354.837 870.818 354.753 870.727 354.648C870.648 354.544 870.609 354.427 870.609 354.297V330.43C870.609 330.299 870.648 330.182 870.727 330.078C870.818 329.974 870.961 329.889 871.156 329.824C871.352 329.759 871.612 329.707 871.938 329.668C872.276 329.629 872.693 329.609 873.188 329.609C873.695 329.609 874.112 329.629 874.438 329.668C874.763 329.707 875.023 329.759 875.219 329.824C875.414 329.889 875.551 329.974 875.629 330.078C875.707 330.182 875.746 330.299 875.746 330.43V339.707H885.199V330.43C885.199 330.299 885.238 330.182 885.316 330.078C885.408 329.974 885.544 329.889 885.727 329.824C885.922 329.759 886.182 329.707 886.508 329.668C886.846 329.629 887.27 329.609 887.777 329.609C888.272 329.609 888.682 329.629 889.008 329.668C889.333 329.707 889.594 329.759 889.789 329.824C889.984 329.889 890.121 329.974 890.199 330.078C890.29 330.182 890.336 330.299 890.336 330.43V354.297ZM912.66 331.836C912.66 332.214 912.641 332.539 912.602 332.812C912.576 333.073 912.53 333.288 912.465 333.457C912.4 333.613 912.315 333.73 912.211 333.809C912.12 333.887 912.016 333.926 911.898 333.926H905.57V354.297C905.57 354.427 905.525 354.544 905.434 354.648C905.355 354.753 905.219 354.837 905.023 354.902C904.828 354.967 904.561 355.02 904.223 355.059C903.897 355.098 903.487 355.117 902.992 355.117C902.497 355.117 902.081 355.098 901.742 355.059C901.417 355.02 901.156 354.967 900.961 354.902C900.766 354.837 900.622 354.753 900.531 354.648C900.453 354.544 900.414 354.427 900.414 354.297V333.926H894.086C893.956 333.926 893.845 333.887 893.754 333.809C893.663 333.73 893.585 333.613 893.52 333.457C893.454 333.288 893.402 333.073 893.363 332.812C893.337 332.539 893.324 332.214 893.324 331.836C893.324 331.445 893.337 331.113 893.363 330.84C893.402 330.566 893.454 330.352 893.52 330.195C893.585 330.026 893.663 329.909 893.754 329.844C893.845 329.766 893.956 329.727 894.086 329.727H911.898C912.016 329.727 912.12 329.766 912.211 329.844C912.315 329.909 912.4 330.026 912.465 330.195C912.53 330.352 912.576 330.566 912.602 330.84C912.641 331.113 912.66 331.445 912.66 331.836ZM945.102 354.297C945.102 354.427 945.062 354.544 944.984 354.648C944.919 354.753 944.789 354.837 944.594 354.902C944.411 354.967 944.164 355.02 943.852 355.059C943.539 355.098 943.142 355.117 942.66 355.117C942.191 355.117 941.801 355.098 941.488 355.059C941.176 355.02 940.928 354.967 940.746 354.902C940.564 354.837 940.434 354.753 940.355 354.648C940.277 354.544 940.238 354.427 940.238 354.297V333.73H940.199L932.875 354.277C932.823 354.447 932.738 354.59 932.621 354.707C932.504 354.811 932.341 354.896 932.133 354.961C931.938 355.026 931.684 355.065 931.371 355.078C931.059 355.104 930.681 355.117 930.238 355.117C929.796 355.117 929.418 355.098 929.105 355.059C928.793 355.033 928.533 354.987 928.324 354.922C928.129 354.844 927.973 354.753 927.855 354.648C927.738 354.544 927.66 354.421 927.621 354.277L920.551 333.73H920.512V354.297C920.512 354.427 920.473 354.544 920.395 354.648C920.329 354.753 920.199 354.837 920.004 354.902C919.809 354.967 919.555 355.02 919.242 355.059C918.943 355.098 918.552 355.117 918.07 355.117C917.602 355.117 917.211 355.098 916.898 355.059C916.586 355.02 916.332 354.967 916.137 354.902C915.954 354.837 915.824 354.753 915.746 354.648C915.681 354.544 915.648 354.427 915.648 354.297V331.777C915.648 331.113 915.824 330.605 916.176 330.254C916.527 329.902 916.996 329.727 917.582 329.727H920.941C921.54 329.727 922.055 329.779 922.484 329.883C922.914 329.974 923.285 330.137 923.598 330.371C923.91 330.592 924.171 330.892 924.379 331.27C924.587 331.634 924.77 332.09 924.926 332.637L930.395 347.695H930.473L936.137 332.676C936.306 332.129 936.488 331.667 936.684 331.289C936.892 330.911 937.126 330.605 937.387 330.371C937.66 330.137 937.979 329.974 938.344 329.883C938.708 329.779 939.132 329.727 939.613 329.727H943.07C943.422 329.727 943.721 329.772 943.969 329.863C944.229 329.954 944.438 330.091 944.594 330.273C944.763 330.443 944.887 330.658 944.965 330.918C945.056 331.165 945.102 331.452 945.102 331.777V354.297ZM964.496 352.852C964.496 353.242 964.477 353.574 964.438 353.848C964.411 354.108 964.366 354.329 964.301 354.512C964.236 354.681 964.151 354.805 964.047 354.883C963.956 354.961 963.845 355 963.715 355H952.133C951.703 355 951.339 354.876 951.039 354.629C950.753 354.368 950.609 353.952 950.609 353.379V330.43C950.609 330.299 950.648 330.182 950.727 330.078C950.818 329.974 950.961 329.889 951.156 329.824C951.352 329.759 951.612 329.707 951.938 329.668C952.276 329.629 952.693 329.609 953.188 329.609C953.695 329.609 954.112 329.629 954.438 329.668C954.763 329.707 955.023 329.759 955.219 329.824C955.414 329.889 955.551 329.974 955.629 330.078C955.72 330.182 955.766 330.299 955.766 330.43V350.762H963.715C963.845 350.762 963.956 350.801 964.047 350.879C964.151 350.944 964.236 351.061 964.301 351.23C964.366 351.387 964.411 351.602 964.438 351.875C964.477 352.135 964.496 352.461 964.496 352.852ZM943.793 494.969C943.793 496.115 943.682 497.15 943.461 498.074C943.253 498.986 942.888 499.767 942.367 500.418C941.859 501.056 941.189 501.544 940.355 501.883C939.522 502.221 938.493 502.391 937.27 502.391C936.879 502.391 936.488 502.358 936.098 502.293C935.72 502.241 935.368 502.169 935.043 502.078C934.73 501.987 934.457 501.889 934.223 501.785C933.988 501.681 933.832 501.59 933.754 501.512C933.676 501.421 933.611 501.329 933.559 501.238C933.507 501.147 933.461 501.03 933.422 500.887C933.383 500.73 933.357 500.542 933.344 500.32C933.331 500.099 933.324 499.819 933.324 499.48C933.324 499.038 933.331 498.667 933.344 498.367C933.37 498.055 933.402 497.814 933.441 497.645C933.493 497.462 933.559 497.339 933.637 497.273C933.728 497.195 933.839 497.156 933.969 497.156C934.086 497.156 934.223 497.202 934.379 497.293C934.535 497.371 934.711 497.456 934.906 497.547C935.102 497.638 935.329 497.729 935.59 497.82C935.85 497.898 936.156 497.938 936.508 497.938C936.859 497.938 937.165 497.892 937.426 497.801C937.699 497.697 937.921 497.527 938.09 497.293C938.272 497.046 938.409 496.72 938.5 496.316C938.591 495.913 938.637 495.392 938.637 494.754V477.391C938.637 477.26 938.676 477.15 938.754 477.059C938.845 476.954 938.982 476.87 939.164 476.805C939.359 476.74 939.626 476.694 939.965 476.668C940.303 476.629 940.72 476.609 941.215 476.609C941.71 476.609 942.12 476.629 942.445 476.668C942.771 476.694 943.031 476.74 943.227 476.805C943.435 476.87 943.578 476.954 943.656 477.059C943.747 477.15 943.793 477.26 943.793 477.391V494.969ZM963.812 501.395C963.812 501.577 963.747 501.72 963.617 501.824C963.487 501.928 963.279 502 962.992 502.039C962.719 502.091 962.309 502.117 961.762 502.117C961.176 502.117 960.746 502.091 960.473 502.039C960.212 502 960.023 501.928 959.906 501.824C959.802 501.72 959.75 501.577 959.75 501.395V500.008C959.034 500.776 958.214 501.375 957.289 501.805C956.378 502.234 955.362 502.449 954.242 502.449C953.318 502.449 952.465 502.326 951.684 502.078C950.915 501.844 950.245 501.492 949.672 501.023C949.112 500.542 948.676 499.949 948.363 499.246C948.051 498.543 947.895 497.723 947.895 496.785C947.895 495.77 948.09 494.891 948.48 494.148C948.884 493.393 949.477 492.775 950.258 492.293C951.052 491.798 952.035 491.434 953.207 491.199C954.379 490.965 955.74 490.848 957.289 490.848H958.988V489.793C958.988 489.246 958.93 488.771 958.812 488.367C958.708 487.951 958.526 487.605 958.266 487.332C958.018 487.059 957.68 486.857 957.25 486.727C956.833 486.596 956.312 486.531 955.688 486.531C954.867 486.531 954.132 486.622 953.48 486.805C952.842 486.987 952.276 487.189 951.781 487.41C951.286 487.632 950.87 487.833 950.531 488.016C950.206 488.198 949.939 488.289 949.73 488.289C949.587 488.289 949.457 488.243 949.34 488.152C949.236 488.061 949.145 487.931 949.066 487.762C949.001 487.592 948.949 487.384 948.91 487.137C948.871 486.889 948.852 486.616 948.852 486.316C948.852 485.913 948.884 485.594 948.949 485.359C949.014 485.125 949.138 484.917 949.32 484.734C949.503 484.539 949.822 484.331 950.277 484.109C950.733 483.875 951.267 483.66 951.879 483.465C952.491 483.27 953.155 483.113 953.871 482.996C954.6 482.866 955.349 482.801 956.117 482.801C957.484 482.801 958.65 482.938 959.613 483.211C960.59 483.471 961.391 483.882 962.016 484.441C962.641 484.988 963.096 485.698 963.383 486.57C963.669 487.443 963.812 488.478 963.812 489.676V501.395ZM958.988 493.934H957.113C956.319 493.934 955.642 493.992 955.082 494.109C954.522 494.227 954.066 494.402 953.715 494.637C953.363 494.871 953.103 495.158 952.934 495.496C952.777 495.822 952.699 496.199 952.699 496.629C952.699 497.358 952.927 497.931 953.383 498.348C953.852 498.764 954.496 498.973 955.316 498.973C956.007 498.973 956.638 498.797 957.211 498.445C957.797 498.094 958.389 497.579 958.988 496.902V493.934ZM984.184 483.895C984.184 483.96 984.177 484.038 984.164 484.129C984.164 484.22 984.151 484.324 984.125 484.441C984.112 484.546 984.086 484.669 984.047 484.812C984.021 484.956 983.982 485.118 983.93 485.301L978.695 501.062C978.63 501.284 978.539 501.466 978.422 501.609C978.318 501.74 978.135 501.844 977.875 501.922C977.628 502 977.283 502.052 976.84 502.078C976.41 502.104 975.844 502.117 975.141 502.117C974.451 502.117 973.884 502.098 973.441 502.059C973.012 502.033 972.673 501.98 972.426 501.902C972.178 501.824 971.996 501.72 971.879 501.59C971.775 501.447 971.69 501.271 971.625 501.062L966.391 485.301C966.312 485.04 966.247 484.806 966.195 484.598C966.156 484.389 966.13 484.24 966.117 484.148C966.117 484.057 966.117 483.973 966.117 483.895C966.117 483.764 966.15 483.654 966.215 483.562C966.293 483.458 966.423 483.374 966.605 483.309C966.788 483.243 967.035 483.198 967.348 483.172C967.673 483.146 968.077 483.133 968.559 483.133C969.092 483.133 969.522 483.152 969.848 483.191C970.173 483.217 970.427 483.263 970.609 483.328C970.805 483.38 970.941 483.465 971.02 483.582C971.098 483.686 971.163 483.816 971.215 483.973L975.18 496.766L975.297 497.254L975.414 496.766L979.32 483.973C979.359 483.816 979.418 483.686 979.496 483.582C979.587 483.465 979.724 483.38 979.906 483.328C980.089 483.263 980.329 483.217 980.629 483.191C980.941 483.152 981.345 483.133 981.84 483.133C982.322 483.133 982.712 483.146 983.012 483.172C983.324 483.198 983.565 483.243 983.734 483.309C983.904 483.374 984.021 483.458 984.086 483.562C984.151 483.654 984.184 483.764 984.184 483.895ZM1001.35 501.395C1001.35 501.577 1001.29 501.72 1001.16 501.824C1001.03 501.928 1000.82 502 1000.53 502.039C1000.26 502.091 999.848 502.117 999.301 502.117C998.715 502.117 998.285 502.091 998.012 502.039C997.751 502 997.562 501.928 997.445 501.824C997.341 501.72 997.289 501.577 997.289 501.395V500.008C996.573 500.776 995.753 501.375 994.828 501.805C993.917 502.234 992.901 502.449 991.781 502.449C990.857 502.449 990.004 502.326 989.223 502.078C988.454 501.844 987.784 501.492 987.211 501.023C986.651 500.542 986.215 499.949 985.902 499.246C985.59 498.543 985.434 497.723 985.434 496.785C985.434 495.77 985.629 494.891 986.02 494.148C986.423 493.393 987.016 492.775 987.797 492.293C988.591 491.798 989.574 491.434 990.746 491.199C991.918 490.965 993.279 490.848 994.828 490.848H996.527V489.793C996.527 489.246 996.469 488.771 996.352 488.367C996.247 487.951 996.065 487.605 995.805 487.332C995.557 487.059 995.219 486.857 994.789 486.727C994.372 486.596 993.852 486.531 993.227 486.531C992.406 486.531 991.671 486.622 991.02 486.805C990.382 486.987 989.815 487.189 989.32 487.41C988.826 487.632 988.409 487.833 988.07 488.016C987.745 488.198 987.478 488.289 987.27 488.289C987.126 488.289 986.996 488.243 986.879 488.152C986.775 488.061 986.684 487.931 986.605 487.762C986.54 487.592 986.488 487.384 986.449 487.137C986.41 486.889 986.391 486.616 986.391 486.316C986.391 485.913 986.423 485.594 986.488 485.359C986.553 485.125 986.677 484.917 986.859 484.734C987.042 484.539 987.361 484.331 987.816 484.109C988.272 483.875 988.806 483.66 989.418 483.465C990.03 483.27 990.694 483.113 991.41 482.996C992.139 482.866 992.888 482.801 993.656 482.801C995.023 482.801 996.189 482.938 997.152 483.211C998.129 483.471 998.93 483.882 999.555 484.441C1000.18 484.988 1000.64 485.698 1000.92 486.57C1001.21 487.443 1001.35 488.478 1001.35 489.676V501.395ZM996.527 493.934H994.652C993.858 493.934 993.181 493.992 992.621 494.109C992.061 494.227 991.605 494.402 991.254 494.637C990.902 494.871 990.642 495.158 990.473 495.496C990.316 495.822 990.238 496.199 990.238 496.629C990.238 497.358 990.466 497.931 990.922 498.348C991.391 498.764 992.035 498.973 992.855 498.973C993.546 498.973 994.177 498.797 994.75 498.445C995.336 498.094 995.928 497.579 996.527 496.902V493.934ZM1021.55 494.422C1021.55 495.75 1021.3 496.915 1020.8 497.918C1020.31 498.921 1019.64 499.76 1018.79 500.438C1017.95 501.102 1016.96 501.603 1015.82 501.941C1014.69 502.28 1013.48 502.449 1012.19 502.449C1011.32 502.449 1010.51 502.378 1009.75 502.234C1009.01 502.091 1008.35 501.922 1007.78 501.727C1007.2 501.518 1006.72 501.303 1006.33 501.082C1005.95 500.861 1005.68 500.665 1005.51 500.496C1005.34 500.327 1005.22 500.086 1005.14 499.773C1005.08 499.448 1005.04 498.986 1005.04 498.387C1005.04 497.983 1005.06 497.645 1005.08 497.371C1005.11 497.098 1005.15 496.876 1005.2 496.707C1005.26 496.538 1005.34 496.421 1005.43 496.355C1005.54 496.277 1005.65 496.238 1005.79 496.238C1005.97 496.238 1006.22 496.349 1006.55 496.57C1006.89 496.779 1007.32 497.013 1007.84 497.273C1008.36 497.534 1008.98 497.775 1009.69 497.996C1010.42 498.204 1011.26 498.309 1012.21 498.309C1012.84 498.309 1013.4 498.237 1013.89 498.094C1014.39 497.938 1014.8 497.723 1015.14 497.449C1015.49 497.176 1015.76 496.837 1015.94 496.434C1016.12 496.03 1016.21 495.581 1016.21 495.086C1016.21 494.513 1016.06 494.025 1015.75 493.621C1015.43 493.204 1015.02 492.84 1014.52 492.527C1014.02 492.202 1013.45 491.902 1012.82 491.629C1012.18 491.342 1011.52 491.043 1010.84 490.73C1010.17 490.418 1009.51 490.066 1008.87 489.676C1008.23 489.272 1007.66 488.797 1007.15 488.25C1006.66 487.69 1006.25 487.033 1005.94 486.277C1005.63 485.522 1005.47 484.617 1005.47 483.562C1005.47 482.352 1005.69 481.29 1006.14 480.379C1006.59 479.454 1007.2 478.693 1007.95 478.094C1008.72 477.482 1009.62 477.026 1010.65 476.727C1011.69 476.427 1012.79 476.277 1013.95 476.277C1014.55 476.277 1015.15 476.323 1015.75 476.414C1016.35 476.505 1016.9 476.629 1017.43 476.785C1017.95 476.941 1018.41 477.117 1018.81 477.312C1019.22 477.508 1019.48 477.671 1019.61 477.801C1019.74 477.931 1019.83 478.042 1019.87 478.133C1019.92 478.224 1019.96 478.348 1019.98 478.504C1020.02 478.647 1020.05 478.836 1020.06 479.07C1020.08 479.292 1020.08 479.572 1020.08 479.91C1020.08 480.288 1020.07 480.607 1020.04 480.867C1020.03 481.128 1020 481.342 1019.95 481.512C1019.91 481.681 1019.84 481.805 1019.75 481.883C1019.67 481.961 1019.56 482 1019.42 482C1019.27 482 1019.05 481.909 1018.73 481.727C1018.42 481.544 1018.04 481.349 1017.58 481.141C1017.13 480.919 1016.6 480.724 1016 480.555C1015.4 480.372 1014.74 480.281 1014.03 480.281C1013.47 480.281 1012.98 480.353 1012.56 480.496C1012.15 480.626 1011.79 480.815 1011.51 481.062C1011.23 481.297 1011.03 481.583 1010.88 481.922C1010.75 482.26 1010.69 482.618 1010.69 482.996C1010.69 483.556 1010.84 484.044 1011.14 484.461C1011.45 484.865 1011.86 485.229 1012.37 485.555C1012.89 485.867 1013.47 486.167 1014.12 486.453C1014.78 486.727 1015.44 487.02 1016.12 487.332C1016.79 487.645 1017.46 488.003 1018.11 488.406C1018.76 488.797 1019.34 489.272 1019.85 489.832C1020.36 490.379 1020.77 491.03 1021.08 491.785C1021.39 492.527 1021.55 493.406 1021.55 494.422ZM1038.36 498.562C1038.36 498.901 1038.35 499.188 1038.32 499.422C1038.31 499.643 1038.29 499.832 1038.25 499.988C1038.22 500.145 1038.18 500.275 1038.13 500.379C1038.09 500.47 1037.99 500.594 1037.84 500.75C1037.68 500.893 1037.41 501.076 1037.04 501.297C1036.66 501.505 1036.23 501.694 1035.75 501.863C1035.26 502.033 1034.74 502.169 1034.16 502.273C1033.6 502.378 1033.02 502.43 1032.43 502.43C1031.08 502.43 1029.89 502.221 1028.85 501.805C1027.82 501.388 1026.96 500.776 1026.25 499.969C1025.55 499.148 1025.02 498.152 1024.65 496.98C1024.3 495.809 1024.12 494.467 1024.12 492.957C1024.12 491.212 1024.34 489.708 1024.77 488.445C1025.21 487.169 1025.82 486.115 1026.61 485.281C1027.39 484.448 1028.31 483.829 1029.38 483.426C1030.45 483.022 1031.62 482.82 1032.89 482.82C1033.42 482.82 1033.92 482.866 1034.42 482.957C1034.93 483.048 1035.39 483.172 1035.82 483.328C1036.27 483.484 1036.66 483.66 1037 483.855C1037.35 484.051 1037.6 484.22 1037.74 484.363C1037.88 484.507 1037.98 484.63 1038.03 484.734C1038.1 484.826 1038.14 484.949 1038.17 485.105C1038.21 485.262 1038.23 485.457 1038.25 485.691C1038.27 485.913 1038.29 486.186 1038.29 486.512C1038.29 487.267 1038.22 487.801 1038.09 488.113C1037.96 488.413 1037.79 488.562 1037.58 488.562C1037.36 488.562 1037.13 488.471 1036.88 488.289C1036.63 488.107 1036.34 487.905 1036 487.684C1035.66 487.462 1035.26 487.26 1034.79 487.078C1034.32 486.896 1033.76 486.805 1033.11 486.805C1031.83 486.805 1030.86 487.299 1030.18 488.289C1029.5 489.266 1029.16 490.704 1029.16 492.605C1029.16 493.543 1029.25 494.37 1029.42 495.086C1029.59 495.802 1029.83 496.401 1030.16 496.883C1030.5 497.365 1030.92 497.729 1031.41 497.977C1031.92 498.211 1032.5 498.328 1033.17 498.328C1033.85 498.328 1034.42 498.23 1034.91 498.035C1035.4 497.827 1035.83 497.599 1036.2 497.352C1036.56 497.104 1036.87 496.883 1037.11 496.688C1037.36 496.479 1037.57 496.375 1037.74 496.375C1037.86 496.375 1037.95 496.408 1038.03 496.473C1038.11 496.538 1038.17 496.661 1038.21 496.844C1038.26 497.013 1038.3 497.234 1038.32 497.508C1038.35 497.781 1038.36 498.133 1038.36 498.562ZM1053.13 485.535C1053.13 486.004 1053.12 486.388 1053.09 486.688C1053.06 486.987 1053.02 487.221 1052.97 487.391C1052.92 487.56 1052.85 487.677 1052.76 487.742C1052.68 487.807 1052.58 487.84 1052.45 487.84C1052.34 487.84 1052.22 487.82 1052.09 487.781C1051.96 487.729 1051.81 487.677 1051.64 487.625C1051.49 487.573 1051.31 487.527 1051.12 487.488C1050.92 487.436 1050.71 487.41 1050.47 487.41C1050.2 487.41 1049.93 487.469 1049.65 487.586C1049.38 487.69 1049.09 487.859 1048.79 488.094C1048.51 488.328 1048.2 488.641 1047.88 489.031C1047.56 489.422 1047.22 489.904 1046.86 490.477V501.336C1046.86 501.466 1046.82 501.583 1046.74 501.688C1046.66 501.779 1046.53 501.857 1046.33 501.922C1046.15 501.987 1045.9 502.033 1045.59 502.059C1045.28 502.098 1044.88 502.117 1044.4 502.117C1043.92 502.117 1043.52 502.098 1043.21 502.059C1042.89 502.033 1042.64 501.987 1042.45 501.922C1042.26 501.857 1042.13 501.779 1042.05 501.688C1041.98 501.583 1041.94 501.466 1041.94 501.336V483.914C1041.94 483.784 1041.97 483.673 1042.04 483.582C1042.1 483.478 1042.22 483.393 1042.39 483.328C1042.56 483.263 1042.77 483.217 1043.03 483.191C1043.3 483.152 1043.64 483.133 1044.05 483.133C1044.46 483.133 1044.81 483.152 1045.08 483.191C1045.36 483.217 1045.56 483.263 1045.71 483.328C1045.86 483.393 1045.97 483.478 1046.04 483.582C1046.1 483.673 1046.14 483.784 1046.14 483.914V486.082C1046.59 485.431 1047.02 484.897 1047.43 484.48C1047.83 484.051 1048.21 483.712 1048.58 483.465C1048.94 483.217 1049.31 483.048 1049.67 482.957C1050.04 482.853 1050.4 482.801 1050.77 482.801C1050.93 482.801 1051.12 482.814 1051.31 482.84C1051.51 482.853 1051.71 482.885 1051.92 482.938C1052.13 482.977 1052.31 483.029 1052.46 483.094C1052.62 483.146 1052.73 483.204 1052.8 483.27C1052.88 483.335 1052.93 483.406 1052.95 483.484C1052.99 483.562 1053.02 483.673 1053.05 483.816C1053.08 483.947 1053.1 484.148 1053.11 484.422C1053.12 484.695 1053.13 485.066 1053.13 485.535ZM1061.08 501.336C1061.08 501.466 1061.04 501.583 1060.96 501.688C1060.88 501.779 1060.75 501.857 1060.55 501.922C1060.37 501.987 1060.12 502.033 1059.81 502.059C1059.5 502.098 1059.1 502.117 1058.62 502.117C1058.14 502.117 1057.74 502.098 1057.43 502.059C1057.11 502.033 1056.86 501.987 1056.66 501.922C1056.48 501.857 1056.35 501.779 1056.27 501.688C1056.2 501.583 1056.16 501.466 1056.16 501.336V483.953C1056.16 483.823 1056.2 483.712 1056.27 483.621C1056.35 483.517 1056.48 483.432 1056.66 483.367C1056.86 483.289 1057.11 483.23 1057.43 483.191C1057.74 483.152 1058.14 483.133 1058.62 483.133C1059.1 483.133 1059.5 483.152 1059.81 483.191C1060.12 483.23 1060.37 483.289 1060.55 483.367C1060.75 483.432 1060.88 483.517 1060.96 483.621C1061.04 483.712 1061.08 483.823 1061.08 483.953V501.336ZM1061.45 478.016C1061.45 479.005 1061.25 479.689 1060.84 480.066C1060.44 480.444 1059.69 480.633 1058.6 480.633C1057.49 480.633 1056.74 480.451 1056.35 480.086C1055.97 479.721 1055.79 479.064 1055.79 478.113C1055.79 477.124 1055.98 476.44 1056.37 476.062C1056.77 475.672 1057.53 475.477 1058.64 475.477C1059.73 475.477 1060.47 475.665 1060.86 476.043C1061.25 476.408 1061.45 477.065 1061.45 478.016ZM1083.54 492.371C1083.54 493.921 1083.37 495.32 1083.03 496.57C1082.71 497.807 1082.22 498.862 1081.59 499.734C1080.95 500.607 1080.15 501.277 1079.2 501.746C1078.25 502.215 1077.17 502.449 1075.94 502.449C1075.43 502.449 1074.96 502.397 1074.54 502.293C1074.12 502.202 1073.71 502.059 1073.3 501.863C1072.91 501.655 1072.52 501.401 1072.13 501.102C1071.74 500.802 1071.34 500.451 1070.92 500.047V508.25C1070.92 508.38 1070.88 508.497 1070.8 508.602C1070.73 508.706 1070.59 508.79 1070.39 508.855C1070.21 508.934 1069.96 508.992 1069.65 509.031C1069.34 509.07 1068.94 509.09 1068.46 509.09C1067.98 509.09 1067.58 509.07 1067.27 509.031C1066.96 508.992 1066.7 508.934 1066.51 508.855C1066.33 508.79 1066.2 508.706 1066.12 508.602C1066.04 508.497 1066 508.38 1066 508.25V483.914C1066 483.784 1066.03 483.673 1066.1 483.582C1066.16 483.478 1066.27 483.393 1066.43 483.328C1066.6 483.263 1066.81 483.217 1067.07 483.191C1067.35 483.152 1067.69 483.133 1068.09 483.133C1068.48 483.133 1068.81 483.152 1069.07 483.191C1069.34 483.217 1069.55 483.263 1069.71 483.328C1069.88 483.393 1070 483.478 1070.06 483.582C1070.13 483.673 1070.16 483.784 1070.16 483.914V485.965C1070.67 485.444 1071.16 484.988 1071.64 484.598C1072.14 484.194 1072.64 483.862 1073.15 483.602C1073.66 483.328 1074.18 483.126 1074.71 482.996C1075.26 482.866 1075.84 482.801 1076.45 482.801C1077.73 482.801 1078.81 483.055 1079.71 483.562C1080.61 484.057 1081.34 484.741 1081.9 485.613C1082.47 486.486 1082.89 487.501 1083.15 488.66C1083.41 489.819 1083.54 491.056 1083.54 492.371ZM1078.42 492.723C1078.42 491.98 1078.36 491.271 1078.25 490.594C1078.14 489.904 1077.95 489.292 1077.68 488.758C1077.42 488.224 1077.07 487.801 1076.62 487.488C1076.2 487.163 1075.65 487 1075 487C1074.68 487 1074.35 487.052 1074.03 487.156C1073.71 487.247 1073.39 487.404 1073.05 487.625C1072.73 487.846 1072.39 488.133 1072.04 488.484C1071.68 488.836 1071.31 489.272 1070.92 489.793V495.535C1071.61 496.408 1072.27 497.085 1072.89 497.566C1073.52 498.035 1074.17 498.27 1074.85 498.27C1075.49 498.27 1076.03 498.107 1076.47 497.781C1076.92 497.456 1077.3 497.033 1077.58 496.512C1077.87 495.978 1078.08 495.379 1078.21 494.715C1078.35 494.051 1078.42 493.387 1078.42 492.723ZM1097.64 499.617C1097.64 500.19 1097.6 500.633 1097.52 500.945C1097.46 501.245 1097.37 501.46 1097.25 501.59C1097.13 501.707 1096.96 501.818 1096.72 501.922C1096.5 502.013 1096.23 502.091 1095.92 502.156C1095.62 502.234 1095.29 502.293 1094.93 502.332C1094.57 502.371 1094.22 502.391 1093.85 502.391C1092.88 502.391 1092.03 502.267 1091.31 502.02C1090.6 501.772 1090 501.395 1089.54 500.887C1089.07 500.366 1088.72 499.715 1088.5 498.934C1088.28 498.152 1088.17 497.228 1088.17 496.16V487.234H1086.08C1085.83 487.234 1085.64 487.085 1085.51 486.785C1085.38 486.473 1085.32 485.958 1085.32 485.242C1085.32 484.865 1085.33 484.546 1085.36 484.285C1085.39 484.025 1085.45 483.823 1085.51 483.68C1085.58 483.523 1085.65 483.413 1085.75 483.348C1085.85 483.283 1085.97 483.25 1086.1 483.25H1088.17V479.363C1088.17 479.233 1088.2 479.116 1088.27 479.012C1088.34 478.908 1088.47 478.823 1088.66 478.758C1088.85 478.68 1089.11 478.628 1089.42 478.602C1089.74 478.562 1090.14 478.543 1090.61 478.543C1091.09 478.543 1091.49 478.562 1091.8 478.602C1092.13 478.628 1092.38 478.68 1092.56 478.758C1092.74 478.823 1092.88 478.908 1092.95 479.012C1093.03 479.116 1093.07 479.233 1093.07 479.363V483.25H1096.86C1096.99 483.25 1097.1 483.283 1097.19 483.348C1097.3 483.413 1097.38 483.523 1097.45 483.68C1097.51 483.823 1097.56 484.025 1097.58 484.285C1097.62 484.546 1097.64 484.865 1097.64 485.242C1097.64 485.958 1097.58 486.473 1097.45 486.785C1097.32 487.085 1097.13 487.234 1096.88 487.234H1093.07V495.418C1093.07 496.368 1093.22 497.085 1093.52 497.566C1093.82 498.035 1094.35 498.27 1095.12 498.27C1095.38 498.27 1095.62 498.25 1095.82 498.211C1096.03 498.159 1096.21 498.107 1096.37 498.055C1096.54 497.99 1096.68 497.938 1096.78 497.898C1096.9 497.846 1097 497.82 1097.09 497.82C1097.17 497.82 1097.24 497.846 1097.31 497.898C1097.39 497.938 1097.45 498.029 1097.48 498.172C1097.52 498.302 1097.56 498.484 1097.58 498.719C1097.62 498.953 1097.64 499.253 1097.64 499.617Z" fill="black"/>
<path d="M463.805 197.586C463.805 199.135 463.577 200.522 463.121 201.746C462.665 202.97 461.995 204.005 461.109 204.852C460.224 205.698 459.13 206.342 457.828 206.785C456.526 207.228 455.029 207.449 453.336 207.449C451.747 207.449 450.322 207.254 449.059 206.863C447.796 206.46 446.728 205.854 445.855 205.047C444.983 204.24 444.312 203.237 443.844 202.039C443.388 200.828 443.16 199.415 443.16 197.801V182.43C443.16 182.299 443.199 182.182 443.277 182.078C443.355 181.974 443.492 181.889 443.688 181.824C443.896 181.759 444.163 181.707 444.488 181.668C444.814 181.629 445.23 181.609 445.738 181.609C446.233 181.609 446.643 181.629 446.969 181.668C447.294 181.707 447.555 181.759 447.75 181.824C447.945 181.889 448.082 181.974 448.16 182.078C448.251 182.182 448.297 182.299 448.297 182.43V197.352C448.297 198.354 448.421 199.227 448.668 199.969C448.915 200.698 449.267 201.303 449.723 201.785C450.191 202.267 450.745 202.632 451.383 202.879C452.034 203.113 452.757 203.23 453.551 203.23C454.358 203.23 455.081 203.107 455.719 202.859C456.357 202.612 456.897 202.254 457.34 201.785C457.783 201.303 458.121 200.717 458.355 200.027C458.603 199.324 458.727 198.53 458.727 197.645V182.43C458.727 182.299 458.766 182.182 458.844 182.078C458.922 181.974 459.059 181.889 459.254 181.824C459.449 181.759 459.71 181.707 460.035 181.668C460.374 181.629 460.79 181.609 461.285 181.609C461.78 181.609 462.184 181.629 462.496 181.668C462.822 181.707 463.082 181.759 463.277 181.824C463.473 181.889 463.609 181.974 463.688 182.078C463.766 182.182 463.805 182.299 463.805 182.43V197.586ZM474.469 206.297C474.469 206.427 474.423 206.544 474.332 206.648C474.254 206.753 474.117 206.837 473.922 206.902C473.727 206.967 473.466 207.02 473.141 207.059C472.815 207.098 472.398 207.117 471.891 207.117C471.396 207.117 470.979 207.098 470.641 207.059C470.315 207.02 470.055 206.967 469.859 206.902C469.664 206.837 469.521 206.753 469.43 206.648C469.352 206.544 469.312 206.427 469.312 206.297V182.43C469.312 182.299 469.352 182.182 469.43 182.078C469.521 181.974 469.664 181.889 469.859 181.824C470.068 181.759 470.335 181.707 470.66 181.668C470.986 181.629 471.396 181.609 471.891 181.609C472.398 181.609 472.815 181.629 473.141 181.668C473.466 181.707 473.727 181.759 473.922 181.824C474.117 181.889 474.254 181.974 474.332 182.078C474.423 182.182 474.469 182.299 474.469 182.43V206.297ZM482.145 212.059C482.079 212.228 481.995 212.365 481.891 212.469C481.786 212.573 481.637 212.658 481.441 212.723C481.259 212.788 481.025 212.833 480.738 212.859C480.465 212.898 480.113 212.918 479.684 212.918C479.15 212.918 478.714 212.892 478.375 212.84C478.036 212.788 477.776 212.71 477.594 212.605C477.424 212.501 477.327 212.365 477.301 212.195C477.275 212.039 477.301 211.85 477.379 211.629L489.059 178.836C489.111 178.667 489.189 178.53 489.293 178.426C489.397 178.309 489.54 178.217 489.723 178.152C489.905 178.087 490.139 178.042 490.426 178.016C490.725 177.977 491.083 177.957 491.5 177.957C492.047 177.957 492.483 177.983 492.809 178.035C493.147 178.087 493.401 178.165 493.57 178.27C493.74 178.374 493.837 178.51 493.863 178.68C493.889 178.836 493.87 179.025 493.805 179.246L482.145 212.059ZM517.789 197.586C517.789 199.135 517.561 200.522 517.105 201.746C516.65 202.97 515.979 204.005 515.094 204.852C514.208 205.698 513.115 206.342 511.812 206.785C510.51 207.228 509.013 207.449 507.32 207.449C505.732 207.449 504.306 207.254 503.043 206.863C501.78 206.46 500.712 205.854 499.84 205.047C498.967 204.24 498.297 203.237 497.828 202.039C497.372 200.828 497.145 199.415 497.145 197.801V182.43C497.145 182.299 497.184 182.182 497.262 182.078C497.34 181.974 497.477 181.889 497.672 181.824C497.88 181.759 498.147 181.707 498.473 181.668C498.798 181.629 499.215 181.609 499.723 181.609C500.217 181.609 500.628 181.629 500.953 181.668C501.279 181.707 501.539 181.759 501.734 181.824C501.93 181.889 502.066 181.974 502.145 182.078C502.236 182.182 502.281 182.299 502.281 182.43V197.352C502.281 198.354 502.405 199.227 502.652 199.969C502.9 200.698 503.251 201.303 503.707 201.785C504.176 202.267 504.729 202.632 505.367 202.879C506.018 203.113 506.741 203.23 507.535 203.23C508.342 203.23 509.065 203.107 509.703 202.859C510.341 202.612 510.882 202.254 511.324 201.785C511.767 201.303 512.105 200.717 512.34 200.027C512.587 199.324 512.711 198.53 512.711 197.645V182.43C512.711 182.299 512.75 182.182 512.828 182.078C512.906 181.974 513.043 181.889 513.238 181.824C513.434 181.759 513.694 181.707 514.02 181.668C514.358 181.629 514.775 181.609 515.27 181.609C515.764 181.609 516.168 181.629 516.48 181.668C516.806 181.707 517.066 181.759 517.262 181.824C517.457 181.889 517.594 181.974 517.672 182.078C517.75 182.182 517.789 182.299 517.789 182.43V197.586ZM541.305 205.066C541.539 205.522 541.689 205.887 541.754 206.16C541.832 206.434 541.793 206.642 541.637 206.785C541.48 206.928 541.194 207.02 540.777 207.059C540.374 207.098 539.807 207.117 539.078 207.117C538.466 207.117 537.984 207.104 537.633 207.078C537.281 207.052 537.001 207.013 536.793 206.961C536.598 206.896 536.454 206.811 536.363 206.707C536.272 206.603 536.194 206.473 536.129 206.316L531.383 197.195L526.656 206.316C526.578 206.473 526.493 206.603 526.402 206.707C526.311 206.811 526.161 206.896 525.953 206.961C525.758 207.013 525.478 207.052 525.113 207.078C524.762 207.104 524.293 207.117 523.707 207.117C523.03 207.117 522.503 207.098 522.125 207.059C521.76 207.02 521.513 206.928 521.383 206.785C521.253 206.642 521.227 206.434 521.305 206.16C521.383 205.887 521.546 205.522 521.793 205.066L527.848 194.031L522.223 183.66C521.988 183.191 521.826 182.82 521.734 182.547C521.656 182.26 521.689 182.052 521.832 181.922C521.988 181.779 522.268 181.694 522.672 181.668C523.076 181.629 523.648 181.609 524.391 181.609C525.003 181.609 525.484 181.622 525.836 181.648C526.201 181.674 526.487 181.72 526.695 181.785C526.904 181.837 527.047 181.915 527.125 182.02C527.216 182.124 527.301 182.254 527.379 182.41L531.812 190.77L536.129 182.41C536.207 182.254 536.285 182.124 536.363 182.02C536.454 181.915 536.591 181.837 536.773 181.785C536.969 181.72 537.229 181.674 537.555 181.648C537.893 181.622 538.355 181.609 538.941 181.609C539.592 181.609 540.107 181.629 540.484 181.668C540.862 181.694 541.122 181.779 541.266 181.922C541.409 182.065 541.441 182.273 541.363 182.547C541.298 182.82 541.155 183.191 540.934 183.66L535.309 193.973L541.305 205.066Z" fill="black"/>
<path d="M1297.9 271.969C1297.9 273.115 1297.79 274.15 1297.57 275.074C1297.36 275.986 1297 276.767 1296.48 277.418C1295.97 278.056 1295.3 278.544 1294.46 278.883C1293.63 279.221 1292.6 279.391 1291.38 279.391C1290.99 279.391 1290.6 279.358 1290.21 279.293C1289.83 279.241 1289.48 279.169 1289.15 279.078C1288.84 278.987 1288.57 278.889 1288.33 278.785C1288.1 278.681 1287.94 278.59 1287.86 278.512C1287.79 278.421 1287.72 278.329 1287.67 278.238C1287.62 278.147 1287.57 278.03 1287.53 277.887C1287.49 277.73 1287.47 277.542 1287.45 277.32C1287.44 277.099 1287.43 276.819 1287.43 276.48C1287.43 276.038 1287.44 275.667 1287.45 275.367C1287.48 275.055 1287.51 274.814 1287.55 274.645C1287.6 274.462 1287.67 274.339 1287.75 274.273C1287.84 274.195 1287.95 274.156 1288.08 274.156C1288.2 274.156 1288.33 274.202 1288.49 274.293C1288.64 274.371 1288.82 274.456 1289.02 274.547C1289.21 274.638 1289.44 274.729 1289.7 274.82C1289.96 274.898 1290.27 274.938 1290.62 274.938C1290.97 274.938 1291.27 274.892 1291.54 274.801C1291.81 274.697 1292.03 274.527 1292.2 274.293C1292.38 274.046 1292.52 273.72 1292.61 273.316C1292.7 272.913 1292.75 272.392 1292.75 271.754V254.391C1292.75 254.26 1292.79 254.15 1292.86 254.059C1292.95 253.954 1293.09 253.87 1293.27 253.805C1293.47 253.74 1293.74 253.694 1294.07 253.668C1294.41 253.629 1294.83 253.609 1295.32 253.609C1295.82 253.609 1296.23 253.629 1296.55 253.668C1296.88 253.694 1297.14 253.74 1297.34 253.805C1297.54 253.87 1297.69 253.954 1297.77 254.059C1297.86 254.15 1297.9 254.26 1297.9 254.391V271.969ZM1317.92 278.395C1317.92 278.577 1317.86 278.72 1317.73 278.824C1317.6 278.928 1317.39 279 1317.1 279.039C1316.83 279.091 1316.42 279.117 1315.87 279.117C1315.29 279.117 1314.86 279.091 1314.58 279.039C1314.32 279 1314.13 278.928 1314.02 278.824C1313.91 278.72 1313.86 278.577 1313.86 278.395V277.008C1313.14 277.776 1312.32 278.375 1311.4 278.805C1310.49 279.234 1309.47 279.449 1308.35 279.449C1307.43 279.449 1306.57 279.326 1305.79 279.078C1305.02 278.844 1304.35 278.492 1303.78 278.023C1303.22 277.542 1302.79 276.949 1302.47 276.246C1302.16 275.543 1302 274.723 1302 273.785C1302 272.77 1302.2 271.891 1302.59 271.148C1302.99 270.393 1303.59 269.775 1304.37 269.293C1305.16 268.798 1306.14 268.434 1307.32 268.199C1308.49 267.965 1309.85 267.848 1311.4 267.848H1313.1V266.793C1313.1 266.246 1313.04 265.771 1312.92 265.367C1312.82 264.951 1312.64 264.605 1312.38 264.332C1312.13 264.059 1311.79 263.857 1311.36 263.727C1310.94 263.596 1310.42 263.531 1309.8 263.531C1308.98 263.531 1308.24 263.622 1307.59 263.805C1306.95 263.987 1306.39 264.189 1305.89 264.41C1305.4 264.632 1304.98 264.833 1304.64 265.016C1304.32 265.198 1304.05 265.289 1303.84 265.289C1303.7 265.289 1303.57 265.243 1303.45 265.152C1303.35 265.061 1303.25 264.931 1303.18 264.762C1303.11 264.592 1303.06 264.384 1303.02 264.137C1302.98 263.889 1302.96 263.616 1302.96 263.316C1302.96 262.913 1302.99 262.594 1303.06 262.359C1303.12 262.125 1303.25 261.917 1303.43 261.734C1303.61 261.539 1303.93 261.331 1304.39 261.109C1304.84 260.875 1305.38 260.66 1305.99 260.465C1306.6 260.27 1307.26 260.113 1307.98 259.996C1308.71 259.866 1309.46 259.801 1310.23 259.801C1311.59 259.801 1312.76 259.938 1313.72 260.211C1314.7 260.471 1315.5 260.882 1316.12 261.441C1316.75 261.988 1317.21 262.698 1317.49 263.57C1317.78 264.443 1317.92 265.478 1317.92 266.676V278.395ZM1313.1 270.934H1311.22C1310.43 270.934 1309.75 270.992 1309.19 271.109C1308.63 271.227 1308.18 271.402 1307.82 271.637C1307.47 271.871 1307.21 272.158 1307.04 272.496C1306.89 272.822 1306.81 273.199 1306.81 273.629C1306.81 274.358 1307.04 274.931 1307.49 275.348C1307.96 275.764 1308.61 275.973 1309.43 275.973C1310.12 275.973 1310.75 275.797 1311.32 275.445C1311.91 275.094 1312.5 274.579 1313.1 273.902V270.934ZM1338.29 260.895C1338.29 260.96 1338.29 261.038 1338.27 261.129C1338.27 261.22 1338.26 261.324 1338.23 261.441C1338.22 261.546 1338.2 261.669 1338.16 261.812C1338.13 261.956 1338.09 262.118 1338.04 262.301L1332.8 278.062C1332.74 278.284 1332.65 278.466 1332.53 278.609C1332.43 278.74 1332.24 278.844 1331.98 278.922C1331.74 279 1331.39 279.052 1330.95 279.078C1330.52 279.104 1329.95 279.117 1329.25 279.117C1328.56 279.117 1327.99 279.098 1327.55 279.059C1327.12 279.033 1326.78 278.98 1326.54 278.902C1326.29 278.824 1326.11 278.72 1325.99 278.59C1325.88 278.447 1325.8 278.271 1325.73 278.062L1320.5 262.301C1320.42 262.04 1320.36 261.806 1320.3 261.598C1320.27 261.389 1320.24 261.24 1320.23 261.148C1320.23 261.057 1320.23 260.973 1320.23 260.895C1320.23 260.764 1320.26 260.654 1320.32 260.562C1320.4 260.458 1320.53 260.374 1320.71 260.309C1320.9 260.243 1321.14 260.198 1321.46 260.172C1321.78 260.146 1322.19 260.133 1322.67 260.133C1323.2 260.133 1323.63 260.152 1323.96 260.191C1324.28 260.217 1324.54 260.263 1324.72 260.328C1324.91 260.38 1325.05 260.465 1325.13 260.582C1325.21 260.686 1325.27 260.816 1325.32 260.973L1329.29 273.766L1329.41 274.254L1329.52 273.766L1333.43 260.973C1333.47 260.816 1333.53 260.686 1333.61 260.582C1333.7 260.465 1333.83 260.38 1334.02 260.328C1334.2 260.263 1334.44 260.217 1334.74 260.191C1335.05 260.152 1335.45 260.133 1335.95 260.133C1336.43 260.133 1336.82 260.146 1337.12 260.172C1337.43 260.198 1337.67 260.243 1337.84 260.309C1338.01 260.374 1338.13 260.458 1338.2 260.562C1338.26 260.654 1338.29 260.764 1338.29 260.895ZM1355.46 278.395C1355.46 278.577 1355.4 278.72 1355.27 278.824C1355.14 278.928 1354.93 279 1354.64 279.039C1354.37 279.091 1353.96 279.117 1353.41 279.117C1352.82 279.117 1352.39 279.091 1352.12 279.039C1351.86 279 1351.67 278.928 1351.55 278.824C1351.45 278.72 1351.4 278.577 1351.4 278.395V277.008C1350.68 277.776 1349.86 278.375 1348.94 278.805C1348.03 279.234 1347.01 279.449 1345.89 279.449C1344.97 279.449 1344.11 279.326 1343.33 279.078C1342.56 278.844 1341.89 278.492 1341.32 278.023C1340.76 277.542 1340.32 276.949 1340.01 276.246C1339.7 275.543 1339.54 274.723 1339.54 273.785C1339.54 272.77 1339.74 271.891 1340.13 271.148C1340.53 270.393 1341.12 269.775 1341.91 269.293C1342.7 268.798 1343.68 268.434 1344.86 268.199C1346.03 267.965 1347.39 267.848 1348.94 267.848H1350.64V266.793C1350.64 266.246 1350.58 265.771 1350.46 265.367C1350.36 264.951 1350.17 264.605 1349.91 264.332C1349.67 264.059 1349.33 263.857 1348.9 263.727C1348.48 263.596 1347.96 263.531 1347.34 263.531C1346.52 263.531 1345.78 263.622 1345.13 263.805C1344.49 263.987 1343.92 264.189 1343.43 264.41C1342.93 264.632 1342.52 264.833 1342.18 265.016C1341.85 265.198 1341.59 265.289 1341.38 265.289C1341.24 265.289 1341.11 265.243 1340.99 265.152C1340.88 265.061 1340.79 264.931 1340.71 264.762C1340.65 264.592 1340.6 264.384 1340.56 264.137C1340.52 263.889 1340.5 263.616 1340.5 263.316C1340.5 262.913 1340.53 262.594 1340.6 262.359C1340.66 262.125 1340.79 261.917 1340.97 261.734C1341.15 261.539 1341.47 261.331 1341.93 261.109C1342.38 260.875 1342.92 260.66 1343.53 260.465C1344.14 260.27 1344.8 260.113 1345.52 259.996C1346.25 259.866 1347 259.801 1347.77 259.801C1349.13 259.801 1350.3 259.938 1351.26 260.211C1352.24 260.471 1353.04 260.882 1353.66 261.441C1354.29 261.988 1354.74 262.698 1355.03 263.57C1355.32 264.443 1355.46 265.478 1355.46 266.676V278.395ZM1350.64 270.934H1348.76C1347.97 270.934 1347.29 270.992 1346.73 271.109C1346.17 271.227 1345.71 271.402 1345.36 271.637C1345.01 271.871 1344.75 272.158 1344.58 272.496C1344.43 272.822 1344.35 273.199 1344.35 273.629C1344.35 274.358 1344.58 274.931 1345.03 275.348C1345.5 275.764 1346.14 275.973 1346.96 275.973C1347.65 275.973 1348.29 275.797 1348.86 275.445C1349.45 275.094 1350.04 274.579 1350.64 273.902V270.934ZM1375.66 271.422C1375.66 272.75 1375.41 273.915 1374.91 274.918C1374.42 275.921 1373.75 276.76 1372.9 277.438C1372.06 278.102 1371.07 278.603 1369.93 278.941C1368.8 279.28 1367.59 279.449 1366.3 279.449C1365.43 279.449 1364.61 279.378 1363.86 279.234C1363.12 279.091 1362.46 278.922 1361.89 278.727C1361.31 278.518 1360.83 278.303 1360.44 278.082C1360.06 277.861 1359.79 277.665 1359.62 277.496C1359.45 277.327 1359.33 277.086 1359.25 276.773C1359.18 276.448 1359.15 275.986 1359.15 275.387C1359.15 274.983 1359.17 274.645 1359.19 274.371C1359.22 274.098 1359.26 273.876 1359.31 273.707C1359.37 273.538 1359.45 273.421 1359.54 273.355C1359.65 273.277 1359.76 273.238 1359.89 273.238C1360.08 273.238 1360.33 273.349 1360.66 273.57C1360.99 273.779 1361.42 274.013 1361.95 274.273C1362.47 274.534 1363.08 274.775 1363.8 274.996C1364.53 275.204 1365.37 275.309 1366.32 275.309C1366.95 275.309 1367.51 275.237 1368 275.094C1368.49 274.938 1368.91 274.723 1369.25 274.449C1369.6 274.176 1369.87 273.837 1370.05 273.434C1370.23 273.03 1370.32 272.581 1370.32 272.086C1370.32 271.513 1370.17 271.025 1369.86 270.621C1369.54 270.204 1369.13 269.84 1368.62 269.527C1368.13 269.202 1367.56 268.902 1366.93 268.629C1366.29 268.342 1365.63 268.043 1364.95 267.73C1364.28 267.418 1363.62 267.066 1362.98 266.676C1362.34 266.272 1361.77 265.797 1361.26 265.25C1360.77 264.69 1360.36 264.033 1360.05 263.277C1359.74 262.522 1359.58 261.617 1359.58 260.562C1359.58 259.352 1359.8 258.29 1360.25 257.379C1360.7 256.454 1361.31 255.693 1362.06 255.094C1362.83 254.482 1363.73 254.026 1364.76 253.727C1365.8 253.427 1366.9 253.277 1368.06 253.277C1368.66 253.277 1369.26 253.323 1369.86 253.414C1370.45 253.505 1371.01 253.629 1371.54 253.785C1372.06 253.941 1372.52 254.117 1372.92 254.312C1373.33 254.508 1373.59 254.671 1373.72 254.801C1373.85 254.931 1373.94 255.042 1373.98 255.133C1374.03 255.224 1374.07 255.348 1374.09 255.504C1374.13 255.647 1374.16 255.836 1374.17 256.07C1374.18 256.292 1374.19 256.572 1374.19 256.91C1374.19 257.288 1374.18 257.607 1374.15 257.867C1374.14 258.128 1374.11 258.342 1374.05 258.512C1374.02 258.681 1373.95 258.805 1373.86 258.883C1373.78 258.961 1373.67 259 1373.53 259C1373.38 259 1373.16 258.909 1372.84 258.727C1372.53 258.544 1372.15 258.349 1371.69 258.141C1371.24 257.919 1370.71 257.724 1370.11 257.555C1369.51 257.372 1368.85 257.281 1368.14 257.281C1367.58 257.281 1367.09 257.353 1366.67 257.496C1366.26 257.626 1365.9 257.815 1365.62 258.062C1365.34 258.297 1365.14 258.583 1364.99 258.922C1364.86 259.26 1364.8 259.618 1364.8 259.996C1364.8 260.556 1364.95 261.044 1365.25 261.461C1365.56 261.865 1365.97 262.229 1366.48 262.555C1367 262.867 1367.58 263.167 1368.23 263.453C1368.89 263.727 1369.55 264.02 1370.23 264.332C1370.9 264.645 1371.57 265.003 1372.22 265.406C1372.87 265.797 1373.45 266.272 1373.96 266.832C1374.46 267.379 1374.88 268.03 1375.19 268.785C1375.5 269.527 1375.66 270.406 1375.66 271.422ZM1392.47 275.562C1392.47 275.901 1392.46 276.188 1392.43 276.422C1392.42 276.643 1392.39 276.832 1392.36 276.988C1392.33 277.145 1392.29 277.275 1392.24 277.379C1392.2 277.47 1392.1 277.594 1391.95 277.75C1391.79 277.893 1391.52 278.076 1391.14 278.297C1390.77 278.505 1390.34 278.694 1389.86 278.863C1389.37 279.033 1388.85 279.169 1388.27 279.273C1387.71 279.378 1387.13 279.43 1386.54 279.43C1385.19 279.43 1384 279.221 1382.96 278.805C1381.93 278.388 1381.07 277.776 1380.36 276.969C1379.66 276.148 1379.13 275.152 1378.76 273.98C1378.41 272.809 1378.23 271.467 1378.23 269.957C1378.23 268.212 1378.45 266.708 1378.88 265.445C1379.32 264.169 1379.93 263.115 1380.71 262.281C1381.5 261.448 1382.42 260.829 1383.49 260.426C1384.56 260.022 1385.73 259.82 1387 259.82C1387.52 259.82 1388.03 259.866 1388.53 259.957C1389.04 260.048 1389.5 260.172 1389.93 260.328C1390.38 260.484 1390.77 260.66 1391.11 260.855C1391.46 261.051 1391.7 261.22 1391.85 261.363C1391.99 261.507 1392.09 261.63 1392.14 261.734C1392.21 261.826 1392.25 261.949 1392.28 262.105C1392.32 262.262 1392.34 262.457 1392.36 262.691C1392.38 262.913 1392.39 263.186 1392.39 263.512C1392.39 264.267 1392.33 264.801 1392.2 265.113C1392.07 265.413 1391.9 265.562 1391.69 265.562C1391.47 265.562 1391.24 265.471 1390.99 265.289C1390.74 265.107 1390.45 264.905 1390.11 264.684C1389.77 264.462 1389.37 264.26 1388.9 264.078C1388.43 263.896 1387.87 263.805 1387.22 263.805C1385.94 263.805 1384.97 264.299 1384.29 265.289C1383.61 266.266 1383.27 267.704 1383.27 269.605C1383.27 270.543 1383.36 271.37 1383.53 272.086C1383.7 272.802 1383.94 273.401 1384.27 273.883C1384.61 274.365 1385.02 274.729 1385.52 274.977C1386.03 275.211 1386.61 275.328 1387.28 275.328C1387.95 275.328 1388.53 275.23 1389.02 275.035C1389.51 274.827 1389.94 274.599 1390.3 274.352C1390.67 274.104 1390.98 273.883 1391.22 273.688C1391.47 273.479 1391.68 273.375 1391.85 273.375C1391.96 273.375 1392.06 273.408 1392.14 273.473C1392.22 273.538 1392.28 273.661 1392.32 273.844C1392.37 274.013 1392.41 274.234 1392.43 274.508C1392.46 274.781 1392.47 275.133 1392.47 275.562ZM1400.97 278.336C1400.97 278.466 1400.93 278.583 1400.85 278.688C1400.77 278.779 1400.64 278.857 1400.44 278.922C1400.26 278.987 1400.01 279.033 1399.7 279.059C1399.39 279.098 1398.99 279.117 1398.51 279.117C1398.03 279.117 1397.63 279.098 1397.32 279.059C1397 279.033 1396.75 278.987 1396.55 278.922C1396.37 278.857 1396.24 278.779 1396.16 278.688C1396.09 278.583 1396.05 278.466 1396.05 278.336V260.953C1396.05 260.823 1396.09 260.712 1396.16 260.621C1396.24 260.517 1396.37 260.432 1396.55 260.367C1396.75 260.289 1397 260.23 1397.32 260.191C1397.63 260.152 1398.03 260.133 1398.51 260.133C1398.99 260.133 1399.39 260.152 1399.7 260.191C1400.01 260.23 1400.26 260.289 1400.44 260.367C1400.64 260.432 1400.77 260.517 1400.85 260.621C1400.93 260.712 1400.97 260.823 1400.97 260.953V278.336ZM1401.34 255.016C1401.34 256.005 1401.14 256.689 1400.73 257.066C1400.33 257.444 1399.58 257.633 1398.49 257.633C1397.38 257.633 1396.63 257.451 1396.24 257.086C1395.86 256.721 1395.68 256.064 1395.68 255.113C1395.68 254.124 1395.87 253.44 1396.26 253.062C1396.67 252.672 1397.42 252.477 1398.53 252.477C1399.62 252.477 1400.36 252.665 1400.75 253.043C1401.14 253.408 1401.34 254.065 1401.34 255.016ZM1423.43 269.371C1423.43 270.921 1423.26 272.32 1422.92 273.57C1422.6 274.807 1422.11 275.862 1421.48 276.734C1420.84 277.607 1420.04 278.277 1419.09 278.746C1418.14 279.215 1417.06 279.449 1415.83 279.449C1415.32 279.449 1414.86 279.397 1414.43 279.293C1414.01 279.202 1413.6 279.059 1413.2 278.863C1412.8 278.655 1412.41 278.401 1412.02 278.102C1411.63 277.802 1411.23 277.451 1410.81 277.047V285.25C1410.81 285.38 1410.77 285.497 1410.7 285.602C1410.62 285.706 1410.48 285.79 1410.29 285.855C1410.1 285.934 1409.86 285.992 1409.54 286.031C1409.23 286.07 1408.83 286.09 1408.35 286.09C1407.87 286.09 1407.47 286.07 1407.16 286.031C1406.85 285.992 1406.59 285.934 1406.4 285.855C1406.22 285.79 1406.09 285.706 1406.01 285.602C1405.93 285.497 1405.89 285.38 1405.89 285.25V260.914C1405.89 260.784 1405.92 260.673 1405.99 260.582C1406.05 260.478 1406.16 260.393 1406.32 260.328C1406.49 260.263 1406.7 260.217 1406.96 260.191C1407.24 260.152 1407.58 260.133 1407.98 260.133C1408.37 260.133 1408.7 260.152 1408.96 260.191C1409.23 260.217 1409.45 260.263 1409.6 260.328C1409.77 260.393 1409.89 260.478 1409.95 260.582C1410.02 260.673 1410.05 260.784 1410.05 260.914V262.965C1410.56 262.444 1411.05 261.988 1411.54 261.598C1412.03 261.194 1412.53 260.862 1413.04 260.602C1413.55 260.328 1414.07 260.126 1414.6 259.996C1415.15 259.866 1415.73 259.801 1416.34 259.801C1417.62 259.801 1418.7 260.055 1419.6 260.562C1420.5 261.057 1421.23 261.741 1421.79 262.613C1422.36 263.486 1422.78 264.501 1423.04 265.66C1423.3 266.819 1423.43 268.056 1423.43 269.371ZM1418.31 269.723C1418.31 268.98 1418.25 268.271 1418.14 267.594C1418.03 266.904 1417.84 266.292 1417.57 265.758C1417.31 265.224 1416.96 264.801 1416.52 264.488C1416.09 264.163 1415.55 264 1414.89 264C1414.57 264 1414.24 264.052 1413.92 264.156C1413.61 264.247 1413.28 264.404 1412.94 264.625C1412.62 264.846 1412.28 265.133 1411.93 265.484C1411.57 265.836 1411.2 266.272 1410.81 266.793V272.535C1411.5 273.408 1412.16 274.085 1412.79 274.566C1413.41 275.035 1414.06 275.27 1414.74 275.27C1415.38 275.27 1415.92 275.107 1416.36 274.781C1416.82 274.456 1417.19 274.033 1417.47 273.512C1417.76 272.978 1417.97 272.379 1418.1 271.715C1418.24 271.051 1418.31 270.387 1418.31 269.723ZM1437.53 276.617C1437.53 277.19 1437.49 277.633 1437.41 277.945C1437.35 278.245 1437.26 278.46 1437.14 278.59C1437.02 278.707 1436.85 278.818 1436.61 278.922C1436.39 279.013 1436.12 279.091 1435.81 279.156C1435.51 279.234 1435.18 279.293 1434.82 279.332C1434.46 279.371 1434.11 279.391 1433.74 279.391C1432.77 279.391 1431.92 279.267 1431.2 279.02C1430.49 278.772 1429.89 278.395 1429.43 277.887C1428.96 277.366 1428.61 276.715 1428.39 275.934C1428.17 275.152 1428.06 274.228 1428.06 273.16V264.234H1425.97C1425.72 264.234 1425.53 264.085 1425.4 263.785C1425.27 263.473 1425.21 262.958 1425.21 262.242C1425.21 261.865 1425.22 261.546 1425.25 261.285C1425.29 261.025 1425.34 260.823 1425.4 260.68C1425.47 260.523 1425.55 260.413 1425.64 260.348C1425.74 260.283 1425.86 260.25 1425.99 260.25H1428.06V256.363C1428.06 256.233 1428.09 256.116 1428.16 256.012C1428.23 255.908 1428.36 255.823 1428.55 255.758C1428.74 255.68 1429 255.628 1429.31 255.602C1429.63 255.562 1430.03 255.543 1430.5 255.543C1430.98 255.543 1431.38 255.562 1431.69 255.602C1432.02 255.628 1432.27 255.68 1432.45 255.758C1432.64 255.823 1432.77 255.908 1432.84 256.012C1432.92 256.116 1432.96 256.233 1432.96 256.363V260.25H1436.75C1436.88 260.25 1436.99 260.283 1437.08 260.348C1437.19 260.413 1437.27 260.523 1437.34 260.68C1437.4 260.823 1437.45 261.025 1437.47 261.285C1437.51 261.546 1437.53 261.865 1437.53 262.242C1437.53 262.958 1437.47 263.473 1437.34 263.785C1437.21 264.085 1437.02 264.234 1436.77 264.234H1432.96V272.418C1432.96 273.368 1433.11 274.085 1433.41 274.566C1433.71 275.035 1434.24 275.27 1435.01 275.27C1435.27 275.27 1435.51 275.25 1435.71 275.211C1435.92 275.159 1436.11 275.107 1436.26 275.055C1436.43 274.99 1436.57 274.938 1436.67 274.898C1436.79 274.846 1436.89 274.82 1436.98 274.82C1437.06 274.82 1437.13 274.846 1437.2 274.898C1437.28 274.938 1437.34 275.029 1437.38 275.172C1437.41 275.302 1437.45 275.484 1437.47 275.719C1437.51 275.953 1437.53 276.253 1437.53 276.617Z" fill="black"/>
</svg>
